<svg width="130" height="130" viewBox="0 0 130 130" fill="none" xmlns="http://www.w3.org/2000/svg">
<path d="M60.3676 46.1575C67.3944 46.1575 73.0908 40.4611 73.0908 33.4342C73.0908 26.4073 67.3944 20.7109 60.3676 20.7109C53.3407 20.7109 47.6443 26.4073 47.6443 33.4342C47.6443 40.4611 53.3407 46.1575 60.3676 46.1575Z" fill="#0B5D3A"/>
<path d="M72.82 33.4342C72.8122 36.6364 71.5643 39.7112 69.3382 42.0132C67.112 44.3151 64.0807 45.6652 60.8805 45.7802C57.6802 45.8951 54.5599 44.7659 52.1744 42.6295C49.7888 40.4932 48.3236 37.5159 48.0861 34.3224C47.8487 31.1289 48.8575 27.9676 50.9009 25.502C52.9443 23.0363 55.8633 21.4581 59.0453 21.0985C62.2274 20.7389 65.425 21.6258 67.9671 23.5732C70.5092 25.5207 72.1982 28.3771 72.6794 31.543C72.774 32.1689 72.821 32.8011 72.82 33.4342C72.82 33.7825 73.3631 33.7837 73.3618 33.4342C73.3618 30.0737 72.0602 26.8439 69.7301 24.4225C67.4001 22.0011 64.2227 20.5763 60.8647 20.4471C57.5068 20.3179 54.2294 21.4944 51.7201 23.7296C49.2109 25.9648 47.665 29.085 47.4067 32.4355C47.1485 35.786 48.1981 39.1063 50.3351 41.6996C52.4722 44.2929 55.5307 45.9577 58.8688 46.3446C62.2068 46.7315 65.565 45.8104 68.2386 43.7746C70.9122 41.7388 72.6933 38.7466 73.2083 35.4259C73.3084 34.7667 73.3597 34.101 73.3618 33.4342C73.3631 33.0859 72.8213 33.0846 72.82 33.4342Z" fill="#0B5D3A"/>
<path d="M60.3676 18.6602V33.4332H75.1406C75.1406 29.5152 73.5842 25.7576 70.8137 22.9871C68.0432 20.2166 64.2856 18.6602 60.3676 18.6602Z" fill="black"/>
<path d="M60.098 18.6615V31.6118C60.098 32.2091 60.0761 32.8128 60.098 33.4101V33.4346C60.099 33.5061 60.1279 33.5745 60.1785 33.6251C60.229 33.6756 60.2974 33.7045 60.3689 33.7055H73.3179C73.9165 33.7055 74.5189 33.7274 75.1162 33.7055H75.1407C75.2122 33.7045 75.2806 33.6756 75.3311 33.6251C75.3817 33.5745 75.4106 33.5061 75.4116 33.4346C75.4155 29.5467 73.9125 25.8086 71.2184 23.0055C68.5242 20.2023 64.8486 18.5524 60.9636 18.4022C60.7675 18.3945 60.5766 18.3906 60.3741 18.3906C60.0258 18.3906 60.0245 18.9324 60.3741 18.9324C64.1185 18.9295 67.7186 20.3768 70.419 22.9707C73.1195 25.5646 74.7104 29.1036 74.8582 32.8451C74.8659 33.0412 74.8698 33.2385 74.8698 33.4346L75.1407 33.1637H60.9752C60.7843 33.1637 60.5882 33.1456 60.3934 33.1637C60.3848 33.1643 60.3762 33.1643 60.3676 33.1637L60.6385 33.4346V20.4843C60.6385 19.887 60.6617 19.2833 60.6385 18.686V18.6615C60.6385 18.3132 60.098 18.3119 60.098 18.6615Z" fill="black"/>
<path d="M7.72397 92.0325C7.27763 96.1024 7.15121 100.198 7.08929 104.287C7.07381 105.319 7.06091 106.363 7.04414 107.402C7.0364 107.907 7.02866 108.413 7.01834 108.917C7.0106 109.349 7.01834 109.783 6.96416 110.207C6.87879 110.987 6.68649 111.751 6.39269 112.478C6.2493 112.837 6.06948 113.18 5.85605 113.502C5.63804 113.824 5.32457 114.081 5.1401 114.426C4.95563 114.77 4.95176 115.163 5.32715 115.36C5.62385 115.514 5.97215 115.538 6.29723 115.581C6.7655 115.645 7.22732 115.723 7.69946 115.756C8.16319 115.787 8.62838 115.792 9.09266 115.77C9.60866 115.744 10.184 115.69 10.6407 115.419C10.7506 115.36 10.8465 115.279 10.922 115.18C10.9975 115.081 11.0507 114.966 11.078 114.845C11.0939 114.664 11.0839 114.481 11.0483 114.303C11.0186 114.051 10.989 113.799 10.9632 113.547C10.8561 112.515 10.7942 111.461 10.9167 110.423C11.0328 109.442 11.3295 108.488 11.6443 107.559C11.959 106.63 12.3177 105.669 12.5692 104.698C12.8208 103.726 13.013 102.706 13.2207 101.704C13.627 99.6964 13.9689 97.6736 14.2114 95.6406C14.4423 93.7056 14.5506 91.7306 14.1753 89.8072C14.0856 89.3441 13.9645 88.8877 13.8128 88.4411C13.747 88.2463 13.4374 88.3289 13.5019 88.5262C14.1056 90.3619 14.1765 92.2982 14.0308 94.2113C13.862 96.1761 13.5894 98.1306 13.2142 100.067C13.0323 101.062 12.8272 102.056 12.6169 103.046C12.4221 104.005 12.1775 104.952 11.8842 105.884C11.5785 106.813 11.2392 107.73 10.9657 108.671C10.6915 109.61 10.5462 110.581 10.5336 111.559C10.5258 112.569 10.6497 113.572 10.7658 114.571C10.7905 114.684 10.7789 114.801 10.7325 114.906C10.6861 115.012 10.6074 115.099 10.5078 115.157C10.2775 115.29 10.024 115.377 9.76088 115.415C9.05805 115.52 8.34492 115.539 7.63754 115.47C7.18604 115.438 6.74486 115.361 6.29723 115.301C6.12695 115.28 5.95667 115.26 5.79026 115.223C5.63378 115.204 5.48551 115.143 5.36198 115.045C5.21105 114.881 5.37746 114.604 5.47679 114.458C5.57612 114.312 5.73479 114.157 5.86379 114.005C6.08198 113.73 6.2693 113.432 6.42236 113.116C6.76485 112.42 7.00761 111.679 7.14347 110.915C7.29827 110.087 7.29311 109.254 7.30601 108.414C7.32149 107.412 7.33439 106.41 7.34471 105.406C7.39115 101.452 7.44017 97.4943 7.77557 93.5508C7.81943 93.0451 7.86716 92.5394 7.91876 92.0338C7.93166 91.9048 7.73558 91.9048 7.72139 92.0338L7.72397 92.0325Z" fill="black"/>
<path d="M6.77586 112.37C7.14996 112.407 7.52535 112.446 7.90074 112.481C8.08779 112.497 8.27613 112.512 8.46318 112.527C8.65023 112.543 8.82954 112.527 8.95854 112.656C9.06174 112.758 9.13011 112.891 9.23976 112.989C9.34734 113.085 9.4746 113.155 9.61257 113.197C9.95313 113.298 10.2692 113.129 10.6097 113.145C10.6376 113.144 10.6642 113.134 10.6849 113.115C10.7056 113.096 10.719 113.071 10.7228 113.043C10.7265 113.016 10.7203 112.988 10.7052 112.964C10.6902 112.941 10.6673 112.923 10.6407 112.915C10.3066 112.816 9.9699 113.044 9.63837 112.892C9.34941 112.763 9.26556 112.414 8.97402 112.29C8.82922 112.242 8.67734 112.221 8.5251 112.225C8.33805 112.215 8.151 112.203 7.96266 112.194C7.56792 112.174 7.17189 112.162 6.77586 112.146C6.63009 112.146 6.63525 112.355 6.77586 112.37Z" fill="black"/>
<path d="M33.8039 92.0331C34.2129 96.0037 34.307 99.9924 34.3599 103.982C34.3728 104.976 34.3849 105.97 34.396 106.965C34.4089 107.931 34.396 108.9 34.4476 109.87C34.4945 110.624 34.6394 111.368 34.8785 112.085C35.0905 112.789 35.4351 113.445 35.8937 114.02C36.0189 114.154 36.1369 114.295 36.2472 114.442C36.3543 114.598 36.5258 114.893 36.3375 115.051C36.0988 115.251 35.6809 115.252 35.3893 115.29C34.934 115.351 34.4863 115.427 34.0258 115.458C33.5702 115.489 33.1132 115.493 32.6571 115.471C32.1747 115.448 31.6006 115.409 31.1917 115.127C30.953 114.963 30.9337 114.765 30.9646 114.495C31.0253 113.991 31.0833 113.488 31.1259 112.984C31.2265 111.996 31.2062 111 31.0653 110.017C30.9105 109.062 30.6099 108.139 30.2977 107.225C29.9855 106.312 29.6527 105.395 29.4205 104.452C29.1832 103.473 28.9806 102.482 28.782 101.494C28.395 99.5357 28.057 97.5633 27.8248 95.5793C27.6042 93.6959 27.4945 91.7635 27.8622 89.8917C27.9527 89.4289 28.0721 88.9722 28.2195 88.5243C28.284 88.3269 27.9757 88.2444 27.9099 88.4392C27.2804 90.289 27.2198 92.2769 27.3681 94.2093C27.5425 96.2254 27.8241 98.2307 28.2118 100.217C28.4044 101.249 28.6147 102.281 28.8426 103.313C29.0475 104.285 29.3059 105.245 29.6166 106.188C29.9314 107.124 30.2784 108.05 30.5325 109.004C30.7955 109.997 30.9119 111.023 30.8782 112.05C30.8627 112.574 30.8189 113.096 30.7634 113.616C30.7402 113.848 30.7131 114.079 30.686 114.31C30.6469 114.498 30.6387 114.691 30.6615 114.882C30.7776 115.429 31.4471 115.619 31.9218 115.701C32.6401 115.807 33.3686 115.827 34.0916 115.759C34.5547 115.724 35.0101 115.644 35.4706 115.583C35.7918 115.541 36.1479 115.516 36.4342 115.349C37.256 114.869 36.1427 113.918 35.8486 113.473C35.4346 112.814 35.1358 112.089 34.9649 111.329C34.7624 110.507 34.725 109.697 34.7069 108.855C34.688 107.829 34.6721 106.803 34.6592 105.777C34.6024 101.696 34.5302 97.6136 34.1561 93.5475C34.1097 93.0419 34.0589 92.5362 34.0039 92.0305C33.9897 91.9015 33.7923 91.9015 33.8065 92.0305L33.8039 92.0331Z" fill="black"/>
<path d="M34.943 112.145C34.556 112.161 34.169 112.172 33.782 112.19C33.5937 112.199 33.4066 112.211 33.2196 112.221C33.0569 112.216 32.8946 112.239 32.7397 112.288C32.4572 112.408 32.3733 112.741 32.1024 112.878C31.7644 113.048 31.4174 112.812 31.0704 112.914C30.9479 112.95 30.9659 113.15 31.1014 113.144C31.4342 113.13 31.7464 113.292 32.0753 113.203C32.2141 113.165 32.343 113.097 32.4533 113.004C32.572 112.904 32.6429 112.763 32.7526 112.655C32.8622 112.546 33.0557 112.541 33.2183 112.526L33.7807 112.479C34.1677 112.445 34.5547 112.403 34.9417 112.366C35.081 112.352 35.0875 112.138 34.9417 112.143L34.943 112.145Z" fill="black"/>
<path d="M11.1167 50.9085L11.3747 52.3017C10.8909 52.5429 10.7297 53.1454 10.6317 53.6768C8.04521 67.1315 7.0274 80.8313 6.01475 94.495C5.93993 95.4961 5.87027 96.5332 6.2147 97.4762C6.86744 99.259 8.7947 100.211 10.6071 100.767C15.8123 102.365 21.3825 102.143 26.8173 101.799C29.0013 101.658 31.2368 101.488 33.2338 100.59C33.8259 100.325 34.4076 99.9814 34.7895 99.4551C35.4603 98.5314 35.3739 97.2801 35.2565 96.1436C34.6734 90.4573 34.0877 84.7607 32.9345 79.1608C30.8924 69.2123 27.0946 59.6818 25.2487 49.6895" fill="#0B5D3A"/>
<path d="M11.0148 50.9396C11.0935 51.4053 11.1709 51.8722 11.2534 52.3379L11.3128 52.1934C10.58 52.5804 10.5104 53.5712 10.3724 54.2936C10.1634 55.3806 9.96429 56.4698 9.77509 57.5611C9.39841 59.7245 9.06817 61.8968 8.76502 64.0718C8.15743 68.4242 7.66852 72.7909 7.25314 77.1653C6.83389 81.5784 6.47914 85.9979 6.15019 90.4187L5.90638 93.6824C5.83156 94.699 5.69998 95.7387 5.85865 96.7552C6.1231 98.4412 7.40665 99.5932 8.8837 100.291C10.6149 101.115 12.5718 101.523 14.4565 101.808C16.5363 102.104 18.6356 102.241 20.7362 102.217C22.8441 102.209 24.9506 102.088 27.0572 101.951C29.0438 101.822 31.0769 101.651 32.9396 100.899C33.7652 100.566 34.6166 100.125 35.0784 99.3313C35.517 98.5767 35.5493 97.6647 35.4925 96.8158C35.4229 95.7606 35.2861 94.7054 35.1752 93.6528C35.0608 92.5537 34.9413 91.4542 34.8166 90.3542C34.3199 86.0147 33.7007 81.6867 32.7397 77.4233C31.8005 73.2553 30.5879 69.1557 29.3857 65.0599C28.1834 60.9642 26.9708 56.8658 26.042 52.6965C25.8167 51.6826 25.609 50.6657 25.4189 49.6457C25.3815 49.4457 25.0771 49.5296 25.1132 49.7295C25.8743 53.8305 26.9605 57.8566 28.1202 61.8659C29.2799 65.8752 30.4976 69.8342 31.5413 73.8629C32.6046 77.9735 33.423 82.1437 33.9923 86.3514C34.2838 88.494 34.5276 90.6432 34.7572 92.7936C34.8707 93.86 34.9817 94.9264 35.09 95.9928C35.1803 96.879 35.2926 97.8195 35.0101 98.6838C34.703 99.6242 33.88 100.141 33.0144 100.512C32.0983 100.888 31.1403 101.153 30.161 101.301C28.164 101.63 26.1104 101.688 24.098 101.787C19.97 101.982 15.7775 101.951 11.7552 100.914C10.1543 100.501 8.41801 99.9609 7.24024 98.7379C6.62478 98.1014 6.24873 97.2713 6.17599 96.3888C6.08182 95.3762 6.22243 94.339 6.29725 93.329C6.61588 89.0268 6.94225 84.726 7.31764 80.429C7.69303 76.1513 8.1226 71.8763 8.65021 67.6154C9.17782 63.3545 9.78799 59.0666 10.562 54.8199C10.6484 54.3465 10.7207 53.8653 10.8342 53.4009C10.9296 53.0139 11.0728 52.6269 11.4379 52.4153C11.4622 52.401 11.4812 52.3792 11.4919 52.3531C11.5026 52.327 11.5045 52.2981 11.4972 52.2708C11.4056 51.8077 11.3089 51.3459 11.2147 50.8841C11.1876 50.7551 10.9877 50.808 11.0109 50.9409L11.0148 50.9396Z" fill="#0B5D3A"/>
<path d="M6.11538 97.5088C6.59655 99.1342 8.23614 100.076 9.72738 100.646C10.6578 100.989 11.6124 101.262 12.5834 101.463C13.6374 101.691 14.7027 101.863 15.7749 101.979C17.9347 102.198 20.107 102.27 22.2765 102.193C23.3704 102.163 24.4695 102.109 25.5557 102.044C26.6199 101.983 27.6855 101.915 28.7459 101.814C29.7737 101.723 30.7918 101.543 31.789 101.278C32.7178 101.02 33.7111 100.667 34.4618 100.039C34.6391 99.8893 34.798 99.7195 34.9353 99.5328C35.0565 99.3703 34.7818 99.2116 34.6618 99.3729C34.0942 100.137 33.1022 100.524 32.2289 100.813C31.2557 101.12 30.2538 101.327 29.2386 101.432C28.2273 101.549 27.2082 101.607 26.1917 101.668C25.13 101.732 24.0683 101.797 23.0066 101.829C20.906 101.921 18.8017 101.888 16.705 101.728C14.617 101.569 12.5529 101.18 10.5504 100.567C9.02562 100.089 7.44021 99.3561 6.58623 97.9436C6.48386 97.7771 6.39125 97.6048 6.30888 97.4276C6.25986 97.3179 6.08184 97.3966 6.11538 97.5101V97.5088Z" fill="black"/>
<path d="M28.4504 40.3619C28.0634 39.3789 27.0882 38.7726 26.1645 38.2592C24.5615 37.3665 22.924 36.5401 21.2522 35.7798C21.3726 35.9315 21.4841 36.09 21.5863 36.2545C21.6669 36.3661 21.7167 36.4969 21.7308 36.6338C21.7263 36.7623 21.689 36.8875 21.6224 36.9976C21.3716 37.4733 21.0085 37.8807 20.5646 38.1844C20.7367 38.3264 20.8539 38.5239 20.8962 38.743C20.9736 39.1545 20.7788 39.5608 20.5866 39.9336C19.9738 41.1269 19.3482 42.3214 18.5845 43.4257C18.5091 43.5632 18.3896 43.6714 18.2452 43.7327C18.022 43.7972 17.8027 43.6359 17.6273 43.4824C16.7166 42.6813 15.8407 41.8183 15.2163 40.7734C15.0519 40.5226 14.9351 40.2436 14.8719 39.9504C14.7919 39.4847 14.9415 39.0139 15.095 38.5688C15.1428 38.4321 15.1892 38.276 15.117 38.1508C15.0523 38.0634 14.9622 37.9981 14.859 37.9638C14.5137 37.8216 14.2051 37.6033 13.956 37.3252C13.8318 37.1844 13.7443 37.0152 13.7011 36.8325C13.6579 36.6498 13.6604 36.4593 13.7083 36.2778C13.8205 35.9372 14.1224 35.7024 14.4113 35.4883H14.2217C12.2971 36.2619 10.452 37.2201 8.71212 38.3495C8.5009 38.4694 8.31511 38.6293 8.16515 38.8203C7.98842 39.0783 7.94844 39.4008 7.92135 39.7117C7.6182 43.2696 8.43735 46.8235 9.40743 50.2614C9.53643 50.7129 9.68478 51.194 10.0524 51.4843C10.3711 51.7345 10.7955 51.7952 11.1979 51.8416C15.322 52.3222 19.4887 52.3066 23.609 51.7952C24.5017 51.6842 25.437 51.5372 26.14 50.9721C26.8431 50.4071 25.2654 49.2229 25.5479 48.3689C26.251 46.2456 26.3825 43.6604 26.4509 41.4249C26.469 40.8431 28.6658 40.9102 28.4504 40.3619Z" fill="black"/>
<path d="M17.0559 50.251C17.0727 50.193 17.0685 50.1309 17.0443 50.0755C17.0057 50.0294 16.9515 49.9991 16.892 49.9904L13.7354 49.1029C13.6299 49.0614 13.5142 49.0533 13.4039 49.0797C13.3025 49.1289 13.22 49.21 13.1691 49.3106C12.8337 49.8459 12.635 50.4522 12.4402 51.0521L11.4302 54.1558L13.9986 57.942C14.7726 58.0542 15.5195 58.307 16.287 58.458C17.0546 58.6089 17.8776 58.6347 18.5923 58.3187C19.0373 58.1226 19.4153 57.8027 19.8332 57.5588C20.3019 57.3026 20.7933 57.0906 21.3013 56.9254C21.6663 56.7964 21.825 56.9435 22.1914 56.8132C22.3023 56.7732 22.5784 56.7165 22.5577 56.8313C22.7834 56.3351 22.9693 55.8218 23.1137 55.2962C23.2754 54.6942 23.4371 54.0896 23.5987 53.4824C23.6237 53.3929 23.6305 53.2993 23.6189 53.2071C23.6073 53.1149 23.5774 53.0259 23.5311 52.9453C23.4848 52.8648 23.4228 52.7942 23.349 52.7378C23.2751 52.6815 23.1907 52.6403 23.1008 52.6169C21.1658 52.1009 18.6374 51.2998 17.341 50.9682C17.2334 50.9412 17.1402 50.8744 17.0801 50.7812C17.02 50.688 16.9975 50.5755 17.0172 50.4664L17.0559 50.251Z" fill="white"/>
<path d="M15.6497 34.4378C15.3375 34.6429 15.0279 34.8493 14.7235 35.0648C14.4527 35.244 14.1917 35.4378 13.9418 35.6453C13.7228 35.8233 13.5719 36.0715 13.5146 36.3478C13.4573 36.6242 13.497 36.9118 13.627 37.1623C13.7696 37.4307 13.9772 37.6591 14.2307 37.8267C14.3544 37.9123 14.4836 37.9895 14.6177 38.0576C14.7183 38.1079 14.9402 38.1634 14.9647 38.2885C14.9892 38.4136 14.8822 38.5813 14.8435 38.6897C14.7835 38.8581 14.7357 39.0305 14.7003 39.2057C14.6274 39.5241 14.6313 39.8553 14.7119 40.1719C14.886 40.7859 15.3182 41.3432 15.7116 41.8334C16.1137 42.325 16.5536 42.7844 17.0274 43.2073C17.4144 43.5581 18.0349 44.2638 18.56 43.74C18.7685 43.4991 18.9514 43.2371 19.1056 42.9583C19.2914 42.6667 19.4694 42.37 19.641 42.0708C20.037 41.3832 20.4047 40.6801 20.7633 39.9745C20.9232 39.661 21.0793 39.3295 21.0909 38.9683C21.096 38.7959 21.0629 38.6245 20.994 38.4664C20.9251 38.3083 20.8221 38.1673 20.6923 38.0537L20.6536 38.3465C21.0165 38.0994 21.3312 37.7881 21.5824 37.4281C21.7155 37.252 21.82 37.0561 21.892 36.8476C21.9189 36.738 21.9226 36.624 21.9029 36.5129C21.8831 36.4018 21.8403 36.2961 21.7772 36.2026C21.5536 35.8298 21.2831 35.4873 20.9723 35.1835C20.6592 34.8574 20.2928 34.5874 19.8887 34.3849C19.8497 34.3632 19.8038 34.3575 19.7607 34.3693C19.7177 34.381 19.681 34.4092 19.6585 34.4478C19.636 34.4863 19.6295 34.5321 19.6405 34.5754C19.6515 34.6187 19.679 34.6559 19.7171 34.6791C20.0271 34.8893 20.3231 35.1194 20.6033 35.3679C20.8767 35.6242 21.1195 35.9112 21.327 36.2232C21.4225 36.3664 21.5579 36.5367 21.5218 36.7186C21.467 36.8981 21.3795 37.0661 21.2638 37.2139C21.0499 37.5317 20.7786 37.8068 20.464 38.0253C20.4397 38.04 20.419 38.06 20.4035 38.0838C20.388 38.1076 20.3781 38.1345 20.3745 38.1627C20.3709 38.1909 20.3737 38.2195 20.3828 38.2464C20.3918 38.2733 20.4068 38.2978 20.4266 38.3182C20.9426 38.7632 20.6549 39.3953 20.3969 39.8984C20.1093 40.4596 19.8177 41.0194 19.5107 41.5754C19.2037 42.1314 18.8799 42.668 18.5264 43.1905C18.4633 43.2978 18.3885 43.3977 18.3033 43.4885C18.1859 43.5994 18.0633 43.5749 17.9343 43.4949C17.6899 43.3195 17.4634 43.1203 17.2584 42.9002C16.8414 42.5123 16.4481 42.0996 16.0806 41.6644C15.722 41.231 15.335 40.7369 15.1376 40.2041C15.0351 39.9192 15.0154 39.611 15.0808 39.3153C15.1376 39.0264 15.264 38.7529 15.3156 38.4639C15.3449 38.3455 15.3325 38.2206 15.2806 38.1102C15.2287 37.9998 15.1404 37.9106 15.0305 37.8576C14.7896 37.7482 14.5583 37.6187 14.3391 37.4706C14.0878 37.2889 13.912 37.0213 13.845 36.7186C13.8254 36.5732 13.8425 36.4253 13.8947 36.2883C13.947 36.1513 14.0328 36.0295 14.1443 35.9342C14.3837 35.7159 14.6371 35.5134 14.9028 35.3279C15.2008 35.1009 15.4911 34.8648 15.7813 34.6275C15.8819 34.5462 15.7516 34.3772 15.6433 34.4482L15.6497 34.4378Z" fill="black"/>
<path d="M15.5156 31.8932C14.3546 30.8844 14.1366 29.9143 14.0966 28.396L13.5239 28.3457C13.64 29.3713 13.1498 29.9879 12.5125 30.7967C12.2765 31.096 12.0133 31.394 11.9204 31.7629C11.8275 32.1319 11.9798 32.5975 12.3461 32.7046C12.497 32.7485 12.7176 32.7846 12.706 32.942C12.6959 32.9943 12.6718 33.0429 12.6364 33.0826C12.5327 33.221 12.4639 33.3824 12.4356 33.553C12.4073 33.7236 12.4204 33.8985 12.4738 34.063C12.5326 34.226 12.6437 34.365 12.7898 34.4584C12.9359 34.5517 13.1087 34.5941 13.2814 34.579C13.2104 34.7675 13.1827 34.9696 13.2002 35.1703C13.2178 35.371 13.2802 35.5652 13.3829 35.7385C13.4855 35.9119 13.6258 36.0599 13.7933 36.1718C13.9608 36.2837 14.1513 36.3566 14.3508 36.385C14.4992 36.4154 14.6535 36.394 14.7881 36.3244C14.8821 36.2606 14.9609 36.1769 15.019 36.0793C15.4408 35.451 15.6201 34.6925 15.7466 33.9443C15.8403 33.3784 15.9078 32.8078 15.9491 32.2325C15.7917 32.1228 15.6485 32.008 15.5156 31.8932Z" fill="#0B5D3A"/>
<path d="M23.2376 31.5119C23.2981 31.2891 23.2822 31.0525 23.1924 30.8398C22.9654 30.1561 22.5474 29.5498 22.1411 28.9577C21.896 28.6042 21.9527 28.7539 21.7089 28.4004L21.0845 28.67C21.0845 28.7822 21.0716 28.8906 21.0639 28.9964C20.9801 30.098 20.7827 30.8527 20.0319 31.7054C19.9868 31.7557 19.9403 31.806 19.8926 31.855C19.8737 32.7339 19.8848 33.612 19.9261 34.4892C19.9272 34.9092 19.9951 35.3264 20.1274 35.725C20.277 36.112 20.5673 36.4745 20.9646 36.6074C21.6315 36.8305 22.3771 36.3197 22.6158 35.6566C22.8544 34.9936 22.6945 34.2544 22.4261 33.6043C22.8235 33.6971 23.2001 33.2779 23.2001 32.8702C23.2001 32.4626 22.9602 32.0962 22.6983 31.7828C22.897 31.8847 23.1563 31.726 23.2376 31.5119Z" fill="#0B5D3A"/>
<path d="M13.7225 26.756C15.5002 25.8311 16.9785 24.434 18.431 23.0537C18.2839 23.3829 18.1719 23.7266 18.0969 24.0793C18.0608 24.2482 18.0466 24.4546 18.1834 24.5604C18.3575 24.6894 18.6039 24.5462 18.7652 24.3966C19.0542 24.1319 19.3285 23.8515 19.5869 23.5568C19.9416 24.385 20.3041 25.2261 20.8691 25.9291C21.0884 26.2039 21.3503 26.4838 21.371 26.8321C21.629 26.7379 21.6844 26.4 21.6947 26.1226C21.727 25.2403 21.7334 24.3308 21.4084 23.5091C21.0833 22.6873 20.3454 21.9688 19.463 21.9301C19.3449 21.9316 19.2268 21.9247 19.1096 21.9095C18.8748 21.8643 18.6787 21.7108 18.4646 21.5999C17.7564 21.2271 16.8663 21.3574 16.1606 21.7289C15.455 22.1004 14.8926 22.7015 14.343 23.2859C14.0309 23.62 13.7122 23.9593 13.5045 24.3682C13.3279 24.7239 13.2396 25.1169 13.2473 25.5139C13.2549 25.911 13.3582 26.3003 13.5484 26.6489" fill="#0B5D3A"/>
<path d="M13.7703 26.8387C15.5763 25.919 17.0675 24.5322 18.533 23.1558L18.3021 22.9803C18.1515 23.3114 18.0361 23.6572 17.9576 24.0123C17.9035 24.2703 17.888 24.5903 18.1602 24.7218C18.4323 24.8534 18.7174 24.6419 18.9109 24.4638C19.1828 24.211 19.4411 23.944 19.6849 23.664L19.4489 23.6344C19.6834 24.2195 19.9557 24.7887 20.2642 25.3385C20.4181 25.5982 20.5906 25.8465 20.7802 26.0815C20.9582 26.3034 21.1749 26.5394 21.202 26.8361C21.2028 26.864 21.2108 26.8912 21.2251 26.9152C21.2394 26.9391 21.2596 26.959 21.2838 26.973C21.308 26.9869 21.3353 26.9945 21.3632 26.9949C21.3911 26.9954 21.4186 26.9887 21.4432 26.9755C21.9037 26.7781 21.8521 26.1215 21.8586 25.7138C21.8865 25.1103 21.8322 24.5058 21.6973 23.9169C21.4587 22.9842 20.8008 22.0554 19.8152 21.8258C19.5572 21.7652 19.2696 21.8168 19.0206 21.7277C18.7716 21.6387 18.5588 21.4607 18.3085 21.3653C17.7925 21.1851 17.2319 21.1778 16.7115 21.3446C15.6085 21.6684 14.7933 22.5675 14.0412 23.3893C13.6194 23.8498 13.2491 24.3568 13.1382 24.985C13.0275 25.5837 13.125 26.2023 13.4143 26.7381C13.5097 26.9123 13.7754 26.7562 13.68 26.582C13.4428 26.1447 13.3524 25.6427 13.422 25.1501C13.5077 24.6502 13.7367 24.186 14.0812 23.8137C14.4139 23.4254 14.7666 23.0547 15.1377 22.703C15.5009 22.337 15.9208 22.032 16.3813 21.8C16.836 21.5764 17.3472 21.4938 17.8493 21.5626C18.0862 21.6039 18.3133 21.6892 18.5188 21.8142C18.7124 21.9474 18.9324 22.0376 19.1638 22.0786C19.3928 22.0839 19.6209 22.1106 19.8449 22.1586C20.0508 22.2226 20.2441 22.3217 20.4164 22.4514C20.7633 22.7155 21.0372 23.0636 21.2123 23.4628C21.4574 24.0072 21.5283 24.6238 21.5425 25.2095C21.5425 25.5139 21.5425 25.8209 21.5309 26.1254C21.5206 26.3343 21.5038 26.6039 21.2858 26.6968L21.5271 26.8349C21.491 26.5533 21.372 26.2888 21.1852 26.075C20.9747 25.8193 20.7784 25.5523 20.597 25.2752C20.2605 24.6999 19.9677 24.1001 19.7211 23.4809C19.7093 23.461 19.6932 23.4442 19.6739 23.4315C19.6546 23.4188 19.6328 23.4107 19.6099 23.4077C19.587 23.4047 19.5638 23.407 19.5419 23.4143C19.5201 23.4216 19.5002 23.4338 19.4837 23.4499C19.316 23.6425 19.144 23.8283 18.9677 24.0072C18.8194 24.1555 18.6052 24.4342 18.3808 24.4613C18.0054 24.5051 18.4994 23.2822 18.5665 23.1274C18.6336 22.9726 18.4659 22.8294 18.3395 22.952C16.9063 24.3271 15.4473 25.7242 13.6839 26.6736C13.5742 26.7317 13.671 26.8942 13.7806 26.8387H13.7703Z" fill="#0B5D3A"/>
<path d="M125.429 73.8568H40.9531C40.1791 73.8568 39.4051 73.8852 38.6311 73.8568C38.1977 73.84 37.9861 73.5317 37.9771 73.1318C37.968 72.7319 37.9771 72.3385 37.9771 71.9424V15.603C37.9771 15.1515 37.9203 14.6213 38.5537 14.5581C38.702 14.5439 38.8607 14.5581 39.0104 14.5581H124.621C124.869 14.5581 125.118 14.5478 125.366 14.5581C125.816 14.5774 125.999 14.9064 126.004 15.3037C126.021 16.4802 126.004 17.6605 126.004 18.837V72.8029C126.004 73.2466 126.069 73.8129 125.429 73.8568C125.082 73.88 125.079 74.4218 125.429 74.3986C126.275 74.3418 126.546 73.6775 126.546 72.9577V18.8177C126.546 17.6399 126.556 16.4621 126.546 15.2843C126.539 14.6006 126.138 14.0472 125.407 14.0189C125.199 14.0111 124.99 14.0189 124.782 14.0189H38.9588C38.763 14.0083 38.5667 14.0139 38.3718 14.0356C37.5978 14.1646 37.4404 14.8432 37.4404 15.4895V71.9656C37.4404 72.9048 37.2211 74.3444 38.5885 74.3934C39.2877 74.4179 39.992 74.3934 40.6912 74.3934H125.429C125.777 74.3986 125.777 73.8568 125.429 73.8568Z" fill="black"/>
<path d="M13.9638 26.3177C13.9238 26.8301 13.9122 27.3443 13.929 27.858C13.9342 28.3862 13.9804 28.9132 14.067 29.4343C14.2502 30.4767 14.6901 31.4338 15.5195 32.1162C15.9947 32.53 16.5509 32.8401 17.1527 33.027C17.736 33.1859 18.3583 33.1129 18.889 32.8232C19.393 32.5597 19.8399 32.1992 20.2041 31.7624C20.5683 31.3256 20.8425 30.8211 21.0111 30.278C21.1839 29.6743 21.2175 29.0331 21.2394 28.4088C21.2759 27.6851 21.2738 26.9599 21.2329 26.2364C21.2329 26.2022 21.2193 26.1694 21.1951 26.1452C21.171 26.121 21.1381 26.1074 21.1039 26.1074C21.0697 26.1074 21.0369 26.121 21.0127 26.1452C20.9885 26.1694 20.9749 26.2022 20.9749 26.2364C20.9233 27.3858 21.0227 28.5481 20.8227 29.6898C20.6322 30.7276 20.0409 31.6488 19.1767 32.2543C18.7174 32.5845 18.1692 32.8412 17.5913 32.778C16.9888 32.7135 16.4303 32.391 15.9517 32.0388C15.5358 31.7426 15.1846 31.3647 14.9197 30.9282C14.6826 30.5124 14.5087 30.0638 14.4037 29.5969C14.2829 29.0553 14.2108 28.504 14.1882 27.9495C14.1599 27.4065 14.1779 26.8595 14.1354 26.3177C14.1354 26.2931 14.1256 26.2694 14.1081 26.252C14.0907 26.2346 14.0671 26.2248 14.0425 26.2248C14.0178 26.2248 13.9942 26.2346 13.9768 26.252C13.9594 26.2694 13.9496 26.2931 13.9496 26.3177H13.9638Z" fill="black"/>
<path d="M14.1004 27.1791C14.1158 27.0682 14.0937 26.9552 14.0376 26.8583C13.9815 26.7613 13.8947 26.6858 13.7908 26.6438C13.6811 26.6029 13.5618 26.5945 13.4474 26.6197C13.333 26.6449 13.2283 26.7025 13.1458 26.7857C13.0568 26.8769 12.9878 26.9858 12.9433 27.1054C12.8989 27.2249 12.88 27.3524 12.8878 27.4797C12.8835 27.7406 12.9707 27.9949 13.1342 28.1982C13.2421 28.3098 13.3704 28.3996 13.5122 28.4627C13.578 28.4949 13.6412 28.5246 13.716 28.5517C13.7915 28.589 13.8743 28.6093 13.9585 28.611C13.99 28.6161 14.0223 28.6094 14.0491 28.5921C14.0759 28.5748 14.0953 28.5482 14.1036 28.5174C14.112 28.4866 14.1086 28.4539 14.0942 28.4254C14.0798 28.397 14.0554 28.3748 14.0256 28.3634C13.9659 28.3296 13.9016 28.3048 13.8347 28.2898C13.774 28.2681 13.7146 28.2431 13.6567 28.215C13.5468 28.1659 13.4453 28.0998 13.3561 28.0189C13.2829 27.9277 13.229 27.8226 13.1978 27.71C13.1665 27.5973 13.1585 27.4795 13.1742 27.3636C13.1783 27.26 13.2124 27.1599 13.2724 27.0753C13.3324 26.9908 13.4157 26.9256 13.5122 26.8876C13.5562 26.8716 13.6034 26.8662 13.65 26.8717C13.6965 26.8772 13.7411 26.8935 13.7802 26.9194C13.8193 26.9452 13.8518 26.9798 13.8752 27.0204C13.8985 27.061 13.912 27.1066 13.9147 27.1533C13.9147 27.2578 14.0862 27.2823 14.103 27.1791H14.1004Z" fill="black"/>
<path d="M13.689 27.5134H13.7187H13.7329H13.7445C13.7225 27.5134 13.7303 27.5069 13.7445 27.5134L13.769 27.5289C13.7496 27.5121 13.7793 27.5353 13.769 27.5289L13.778 27.5366L13.7883 27.5469C13.8021 27.5637 13.8126 27.583 13.8193 27.6037L13.8077 27.5753L13.8309 27.6282L13.818 27.5998C13.8355 27.6413 13.8484 27.6846 13.8567 27.7288V27.6966V27.703V27.6708L13.8683 27.6411C13.869 27.6441 13.869 27.6472 13.8683 27.6501L13.8877 27.6243C13.8609 27.6484 13.8409 27.6791 13.8296 27.7133C13.8194 27.7571 13.8258 27.8031 13.8477 27.8423C13.8623 27.87 13.8839 27.8933 13.9104 27.9098C13.9369 27.9263 13.9674 27.9356 13.9986 27.9365C14.0226 27.9364 14.0461 27.9301 14.067 27.9185C14.0853 27.9055 14.101 27.8894 14.1134 27.8707C14.1295 27.8421 14.1342 27.8084 14.1263 27.7766C14.1158 27.7466 14.0959 27.7208 14.0696 27.703C14.0471 27.6892 14.0211 27.682 13.9947 27.6824H14.0283H14.0167L14.0463 27.6953L14.036 27.6888L14.0605 27.7082L14.0489 27.6966L14.0683 27.7224V27.7108L14.0812 27.7404C14.0804 27.7349 14.0804 27.7292 14.0812 27.7237V27.7572C14.0805 27.7529 14.0805 27.7486 14.0812 27.7443V27.7778C14.0812 27.7778 14.0812 27.7701 14.0812 27.7662L14.0696 27.7959V27.7882L14.0502 27.8127C14.0579 27.8024 14.0683 27.7933 14.076 27.783C14.0961 27.7571 14.1074 27.7255 14.1083 27.6927C14.105 27.6604 14.0971 27.6287 14.085 27.5985C14.0753 27.5686 14.0637 27.5393 14.0502 27.5108C14.0365 27.482 14.0192 27.4552 13.9986 27.4308C13.9636 27.3856 13.9161 27.3515 13.8621 27.3328C13.808 27.314 13.7497 27.3113 13.6942 27.3251C13.6727 27.3318 13.6543 27.3458 13.6421 27.3646C13.6299 27.3834 13.6245 27.4059 13.6271 27.4283C13.6299 27.4505 13.6408 27.4709 13.6577 27.4856C13.6746 27.5004 13.6963 27.5084 13.7187 27.5082L13.689 27.5134Z" fill="black"/>
<path d="M21.2574 27.1539C21.2603 27.1072 21.274 27.0618 21.2974 27.0214C21.3208 26.9809 21.3533 26.9464 21.3924 26.9206C21.4314 26.8949 21.4759 26.8785 21.5223 26.8729C21.5687 26.8672 21.6158 26.8725 21.6599 26.8881C21.7564 26.926 21.8398 26.9912 21.8999 27.0757C21.9599 27.1603 21.994 27.2605 21.9978 27.3642C22.0133 27.48 22.0051 27.5978 21.9739 27.7104C21.9426 27.823 21.8889 27.9281 21.816 28.0195C21.7268 28.1003 21.6253 28.1665 21.5154 28.2156C21.4625 28.2414 21.407 28.2646 21.3516 28.2852C21.28 28.3023 21.2111 28.3288 21.1465 28.3639C21.1167 28.3754 21.0923 28.3975 21.0779 28.426C21.0634 28.4544 21.0601 28.4872 21.0684 28.518C21.0768 28.5487 21.0962 28.5754 21.123 28.5926C21.1498 28.6099 21.182 28.6167 21.2135 28.6116C21.3503 28.6013 21.4828 28.5594 21.6005 28.489C21.7286 28.4327 21.8487 28.3598 21.9579 28.2723C22.1492 28.0923 22.2626 27.8446 22.2739 27.5822C22.2921 27.4539 22.2846 27.3233 22.2518 27.1979C22.2191 27.0726 22.1617 26.955 22.083 26.852C22.0105 26.7597 21.9141 26.6889 21.8043 26.6473C21.6945 26.6057 21.5754 26.5949 21.4599 26.616C21.3363 26.6449 21.2277 26.7184 21.1548 26.8224C21.082 26.9264 21.0501 27.0536 21.0652 27.1797C21.0807 27.288 21.2548 27.2597 21.2535 27.1539H21.2574Z" fill="black"/>
<path d="M21.5051 27.3329C21.4495 27.3191 21.3912 27.3218 21.3372 27.3406C21.2831 27.3594 21.2357 27.3934 21.2006 27.4386C21.1808 27.4618 21.1639 27.4874 21.1503 27.5148C21.1374 27.5444 21.1245 27.5728 21.1142 27.6038C21.1021 27.6348 21.0943 27.6674 21.091 27.7005C21.0911 27.7278 21.0987 27.7546 21.1129 27.7779C21.124 27.7929 21.136 27.8071 21.149 27.8205L21.1297 27.796V27.8037L21.1181 27.774C21.1181 27.774 21.1181 27.7818 21.1181 27.7857V27.7521C21.1188 27.7564 21.1188 27.7607 21.1181 27.765V27.7315C21.1188 27.737 21.1188 27.7427 21.1181 27.7482L21.131 27.7186L21.1245 27.7302L21.1439 27.7044L21.14 27.7199L21.1645 27.7005L21.1542 27.707L21.1839 27.6941H21.1722H21.2058C21.1794 27.6939 21.1535 27.701 21.131 27.7147C21.1036 27.7313 21.0833 27.7575 21.0742 27.7882C21.0698 27.804 21.0687 27.8205 21.0709 27.8367C21.0732 27.8528 21.0787 27.8684 21.0871 27.8824C21.0992 27.9013 21.115 27.9176 21.1335 27.9301C21.1544 27.9418 21.178 27.948 21.2019 27.9482C21.229 27.9479 21.2557 27.9408 21.2793 27.9276C21.3104 27.9107 21.336 27.8851 21.3528 27.854C21.3741 27.8146 21.3805 27.7688 21.3709 27.725C21.3602 27.6898 21.3402 27.6581 21.3129 27.6334L21.3322 27.6592C21.3315 27.6563 21.3315 27.6532 21.3322 27.6502L21.3438 27.6799V27.7121V27.7057V27.7379C21.3521 27.6937 21.3651 27.6504 21.3825 27.6089L21.3696 27.6373L21.3928 27.5844L21.3812 27.6128C21.3854 27.6022 21.3902 27.5919 21.3954 27.5818C21.3954 27.5818 21.407 27.5573 21.4122 27.556C21.4173 27.5547 21.3954 27.5754 21.4057 27.5638L21.4161 27.5535L21.4277 27.5431C21.4122 27.5535 21.4406 27.5302 21.4277 27.5431L21.4496 27.5289H21.4638H21.4573H21.487C21.4992 27.529 21.5113 27.5267 21.5226 27.5221C21.5339 27.5174 21.5442 27.5105 21.5528 27.5019C21.5664 27.4871 21.5754 27.4688 21.5786 27.449C21.5811 27.4267 21.5758 27.4042 21.5636 27.3853C21.5513 27.3665 21.5329 27.3525 21.5115 27.3458L21.5051 27.3329Z" fill="black"/>
<path d="M16.0212 27.4739C16.005 27.4713 15.9885 27.4713 15.9722 27.4739C15.9459 27.4825 15.9218 27.4966 15.9013 27.5152L15.8884 27.5281C15.8778 27.5413 15.8679 27.5551 15.8587 27.5693C15.8506 27.5848 15.8445 27.6013 15.8406 27.6184C15.8393 27.6334 15.8393 27.6485 15.8406 27.6635C15.8391 27.6789 15.8391 27.6945 15.8406 27.7099C15.844 27.7265 15.8506 27.7423 15.86 27.7564C15.8684 27.7718 15.8793 27.7857 15.8922 27.7977C15.9048 27.809 15.9181 27.8193 15.9322 27.8286C15.9481 27.8372 15.965 27.8437 15.9825 27.848C15.9993 27.8527 16.0167 27.8549 16.0341 27.8544C16.0492 27.8556 16.0643 27.8556 16.0793 27.8544H16.087C16.1157 27.8465 16.1419 27.8314 16.1631 27.8106C16.176 27.7991 16.1869 27.7856 16.1954 27.7706C16.2106 27.7438 16.2186 27.7136 16.2186 27.6829C16.2212 27.6649 16.2212 27.6466 16.2186 27.6287C16.2186 27.6287 16.2186 27.6287 16.2186 27.6209C16.2139 27.6066 16.2079 27.5928 16.2006 27.5797C16.192 27.5636 16.1806 27.5492 16.167 27.5371C16.1456 27.5149 16.1183 27.4992 16.0883 27.4919C16.0733 27.4873 16.0576 27.4851 16.0419 27.4855C16.0129 27.4854 15.9844 27.493 15.9593 27.5074L15.9284 27.5306C15.9137 27.5438 15.903 27.5607 15.8974 27.5797C15.8903 27.5913 15.8863 27.6047 15.8858 27.6184C15.8807 27.6382 15.8807 27.6591 15.8858 27.679L15.9 27.7151L15.9245 27.7461C15.9374 27.761 15.9545 27.7718 15.9735 27.777C15.9913 27.7869 16.0113 27.7918 16.0316 27.7912H15.9903H15.998L15.9606 27.7757L15.9722 27.7822L15.9413 27.759L15.949 27.7667L15.9245 27.7357C15.9251 27.7392 15.9251 27.7427 15.9245 27.7461L15.909 27.7099V27.7216V27.6816V27.6919V27.6519L15.9245 27.6171L15.9477 27.5861L15.9787 27.5629H15.9696L16.0058 27.5474H15.9954H16.0341H16.0212H16.0612C16.0557 27.5481 16.05 27.5481 16.0445 27.5474L16.0806 27.5616C16.0763 27.5623 16.072 27.5623 16.0677 27.5616L16.0974 27.5848L16.0883 27.5745L16.1103 27.6042L16.1012 27.5887L16.1154 27.6235V27.6093V27.6467V27.6287V27.6648C16.1154 27.6648 16.1154 27.6519 16.1154 27.6467L16.1025 27.6777C16.1055 27.6714 16.1089 27.6654 16.1128 27.6596L16.0935 27.6854L16.1141 27.6583C16.1146 27.6532 16.1146 27.648 16.1141 27.6429L16.1232 27.6222L16.1103 27.6519V27.6442C16.121 27.626 16.1267 27.6053 16.1267 27.5842C16.1267 27.5631 16.121 27.5423 16.1103 27.5242C16.1002 27.5064 16.0855 27.4917 16.0677 27.4816C16.0494 27.4716 16.0291 27.4658 16.0083 27.4648L16.0212 27.4739Z" fill="black"/>
<path d="M15.6137 27.0965C15.6485 27.0823 15.6846 27.072 15.7195 27.0603L15.7775 27.0449H15.8033H15.8252H15.8407H15.8743H15.9284H16.0574L16.2948 27.0513C16.3424 27.0546 16.3903 27.0507 16.4367 27.0397C16.4588 27.0347 16.4796 27.0254 16.4981 27.0123C16.5165 26.9992 16.5322 26.9825 16.5441 26.9633C16.5561 26.9442 16.5642 26.9228 16.5679 26.9005C16.5716 26.8782 16.5709 26.8553 16.5657 26.8333C16.5566 26.8038 16.5385 26.7779 16.514 26.7592C16.4895 26.7405 16.4598 26.7299 16.429 26.7288C16.3959 26.7268 16.3631 26.7349 16.3348 26.752C16.3348 26.752 16.3645 26.752 16.3683 26.743C16.3576 26.7444 16.3468 26.7444 16.3361 26.743H16.2251C16.1465 26.743 16.0665 26.743 15.9878 26.7507C15.9054 26.7567 15.8238 26.7706 15.744 26.792C15.6589 26.8176 15.5805 26.8617 15.5144 26.921C15.497 26.9391 15.486 26.9624 15.483 26.9873C15.48 27.0121 15.4851 27.0373 15.4976 27.0591C15.5102 27.0809 15.5297 27.0979 15.5531 27.1072C15.5765 27.1166 15.6024 27.1178 15.6266 27.1107L15.6137 27.0965Z" fill="black"/>
<path d="M19.0463 27.6541V27.6618L19.0334 27.6321L19.0424 27.6528C19.0455 27.6635 19.0512 27.6733 19.0592 27.6812C19.0627 27.6865 19.0666 27.6917 19.0708 27.6966L19.0514 27.6708C19.0554 27.6766 19.0588 27.6826 19.0618 27.6889L19.0476 27.6579C19.0505 27.6637 19.0527 27.6697 19.054 27.676V27.6399V27.6579V27.6205V27.6347L19.0682 27.5999L19.0579 27.6154L19.076 27.5909L19.1056 27.5676H19.0927L19.1276 27.5534C19.1224 27.5543 19.1172 27.5543 19.1121 27.5534H19.1521H19.1379H19.1779H19.1675L19.2037 27.5689H19.1946L19.2256 27.5921L19.2488 27.6231L19.2643 27.6579V27.6979V27.6876V27.7276V27.716L19.2488 27.7521C19.2486 27.7487 19.2486 27.7452 19.2488 27.7418L19.2256 27.7727L19.2333 27.765L19.2024 27.7882L19.214 27.7818L19.1766 27.7973H19.1843H19.143H19.183C19.2025 27.7935 19.2205 27.7841 19.2346 27.7702C19.2461 27.7639 19.2555 27.7545 19.2617 27.7431C19.2756 27.7289 19.2851 27.711 19.2888 27.6915L19.2953 27.6515L19.2888 27.6102C19.2848 27.5908 19.2754 27.5729 19.2617 27.5586C19.2515 27.5419 19.2367 27.5285 19.2191 27.5199C19.1944 27.5056 19.1664 27.4981 19.1379 27.498C19.1229 27.4967 19.1078 27.4967 19.0927 27.498C19.0633 27.5058 19.0362 27.5209 19.014 27.5418C19.0011 27.5536 18.9899 27.5671 18.9805 27.5818C18.9718 27.5969 18.9649 27.6129 18.9599 27.6296C18.9542 27.6466 18.9515 27.6645 18.9521 27.6824C18.9504 27.7008 18.9526 27.7192 18.9586 27.7366C18.9712 27.7824 19.0013 27.8213 19.0424 27.845C19.0574 27.8535 19.0734 27.86 19.0901 27.8643C19.1081 27.8669 19.1264 27.8669 19.1443 27.8643C19.1617 27.8634 19.179 27.8608 19.1959 27.8566C19.2124 27.8506 19.2284 27.8433 19.2437 27.8347C19.2583 27.8257 19.2718 27.8149 19.2836 27.8024C19.3068 27.7793 19.324 27.751 19.334 27.7199C19.3443 27.6845 19.3443 27.6469 19.334 27.6115C19.329 27.5944 19.3221 27.578 19.3133 27.5625C19.3035 27.5473 19.2918 27.5334 19.2785 27.5212C19.263 27.5043 19.244 27.4911 19.2228 27.4824C19.2016 27.4737 19.1788 27.4698 19.1559 27.4709C19.1351 27.4716 19.1147 27.4774 19.0966 27.4877C19.0788 27.4977 19.0641 27.5124 19.054 27.5302C19.0432 27.5484 19.0375 27.5691 19.0375 27.5902C19.0375 27.6113 19.0432 27.632 19.054 27.6502L19.0463 27.6541Z" fill="black"/>
<path d="M19.6655 26.907C19.6024 26.8477 19.5265 26.8036 19.4436 26.778C19.3619 26.7551 19.2781 26.7404 19.1934 26.7342C19.1173 26.7264 19.0399 26.7342 18.9638 26.7264H18.8528H18.818H18.8373C18.8631 26.7264 18.8064 26.7135 18.8025 26.7135C18.7857 26.7088 18.7683 26.7067 18.7509 26.7071C18.7201 26.7081 18.6904 26.7187 18.6658 26.7375C18.6413 26.7562 18.6233 26.7821 18.6142 26.8116C18.6036 26.8516 18.6083 26.8941 18.6274 26.9308C18.6465 26.9676 18.6786 26.9959 18.7174 27.0102C18.7671 27.0271 18.8198 27.0337 18.8722 27.0296L19.116 27.0231C19.1934 27.0201 19.271 27.0223 19.3482 27.0296H19.3585H19.3843L19.4424 27.0451C19.4798 27.0567 19.5185 27.0683 19.5546 27.0825C19.6617 27.1237 19.7455 26.9664 19.6642 26.8928L19.6655 26.907Z" fill="black"/>
<path d="M13.867 27.6398C13.7187 27.7249 13.5729 27.8978 13.64 28.0745C13.6513 28.1118 13.6708 28.146 13.6972 28.1747C13.7236 28.2033 13.7562 28.2256 13.7924 28.2399C13.8286 28.2542 13.8676 28.26 13.9065 28.2571C13.9453 28.2541 13.983 28.2424 14.0167 28.2228L13.8038 28.059C13.6646 28.6879 13.5574 29.3234 13.4826 29.9631C13.4467 30.2964 13.4295 30.6314 13.431 30.9667C13.431 31.2247 13.431 31.4982 13.6026 31.7123C13.827 31.9909 14.6268 32.4528 14.801 31.8968C14.8157 31.8448 14.8193 31.7902 14.8117 31.7367C14.8041 31.6832 14.7853 31.6319 14.7566 31.5861C14.7279 31.5403 14.69 31.501 14.6452 31.4707C14.6004 31.4405 14.5498 31.4199 14.4965 31.4104C14.2231 31.3666 14.1482 31.7381 14.3211 31.8955C14.4307 31.9922 14.6475 31.9342 14.6346 31.7665C14.6322 31.6992 14.6214 31.6324 14.6023 31.5678C14.5533 31.4259 14.2992 31.3872 14.2721 31.5678C14.2631 31.6337 14.2631 31.7006 14.2721 31.7665L14.5843 31.6375V31.7136L14.4088 31.76C14.4823 31.7716 14.4965 31.8168 14.4166 31.8219C14.3336 31.8119 14.2541 31.7828 14.1844 31.7368C14.0484 31.6835 13.9293 31.5943 13.8399 31.4788C13.747 31.333 13.7638 31.1318 13.7625 30.9628C13.7625 30.7745 13.7625 30.5861 13.7767 30.3978C13.841 29.6376 13.9461 28.8814 14.0915 28.1325C14.1108 28.0203 13.9934 27.8913 13.8799 27.9687C13.9273 27.9191 13.9704 27.8655 14.0089 27.8088C14.0248 27.7896 14.0338 27.7657 14.0345 27.7408C14.0351 27.7159 14.0274 27.6915 14.0125 27.6715C13.9976 27.6516 13.9764 27.6372 13.9524 27.6308C13.9283 27.6243 13.9028 27.6261 13.8799 27.6359L13.867 27.6398Z" fill="black"/>
<path d="M118.406 45.8475C115.113 45.7998 111.819 45.814 108.526 45.805C105.232 45.7959 101.939 45.7792 98.6457 45.7624C96.801 45.7534 94.9537 45.7289 93.1103 45.7766C93.0682 45.7803 93.029 45.7996 93.0004 45.8308C92.9719 45.8619 92.9561 45.9027 92.9561 45.9449C92.9561 45.9872 92.9719 46.0279 93.0004 46.0591C93.029 46.0903 93.0682 46.1096 93.1103 46.1133C94.7602 46.1559 96.414 46.1301 98.0665 46.1288C99.719 46.1275 101.348 46.1133 102.99 46.1055C106.283 46.0892 109.577 46.0785 112.871 46.0733C114.715 46.0733 116.561 46.0733 118.406 46.0423C118.43 46.0396 118.452 46.0281 118.468 46.0102C118.484 45.9922 118.493 45.969 118.493 45.9449C118.493 45.9209 118.484 45.8977 118.468 45.8797C118.452 45.8617 118.43 45.8503 118.406 45.8475Z" fill="#0B5D3A"/>
<path d="M118.406 48.3729C115.113 48.3252 111.819 48.3381 108.526 48.3291C105.232 48.32 101.939 48.3033 98.6457 48.2878C96.801 48.2788 94.9537 48.2543 93.1103 48.302C93.0658 48.302 93.0232 48.3197 92.9917 48.3511C92.9603 48.3826 92.9426 48.4252 92.9426 48.4697C92.9426 48.5142 92.9603 48.5568 92.9917 48.5883C93.0232 48.6197 93.0658 48.6374 93.1103 48.6374C94.7602 48.6812 96.414 48.6554 98.0665 48.6542C99.719 48.6529 101.348 48.6387 102.99 48.6309C106.283 48.6146 109.577 48.6034 112.871 48.5974C114.715 48.5974 116.561 48.5974 118.406 48.5677C118.43 48.565 118.452 48.5535 118.468 48.5356C118.484 48.5176 118.493 48.4944 118.493 48.4703C118.493 48.4463 118.484 48.4231 118.468 48.4051C118.452 48.3871 118.43 48.3757 118.406 48.3729Z" fill="#0B5D3A"/>
<path d="M118.406 50.8983C115.113 50.8506 111.819 50.8648 108.526 50.8558C105.232 50.8467 101.939 50.83 98.6457 50.8132C96.801 50.8042 94.9537 50.7796 93.1103 50.8274C93.0682 50.8311 93.029 50.8504 93.0004 50.8816C92.9719 50.9127 92.9561 50.9535 92.9561 50.9957C92.9561 51.038 92.9719 51.0787 93.0004 51.1099C93.029 51.141 93.0682 51.1604 93.1103 51.1641C94.7602 51.2066 96.414 51.1808 98.0665 51.1795C99.719 51.1783 101.348 51.1654 102.99 51.1563C106.283 51.1408 109.577 51.1301 112.871 51.1241C114.715 51.1241 116.561 51.1241 118.406 51.0931C118.43 51.0904 118.452 51.0789 118.468 51.061C118.484 51.043 118.493 51.0198 118.493 50.9957C118.493 50.9717 118.484 50.9484 118.468 50.9305C118.452 50.9125 118.43 50.9011 118.406 50.8983Z" fill="#0B5D3A"/>
<path d="M118.406 53.4237C115.113 53.376 111.819 53.3902 108.526 53.3811C105.232 53.3721 101.939 53.3553 98.6457 53.3386C96.801 53.3295 94.9537 53.305 93.1103 53.3528C93.0682 53.3565 93.029 53.3758 93.0004 53.407C92.9719 53.4381 92.9561 53.4788 92.9561 53.5211C92.9561 53.5634 92.9719 53.6041 93.0004 53.6353C93.029 53.6664 93.0682 53.6858 93.1103 53.6895C94.7602 53.732 96.414 53.7062 98.0665 53.7049C99.719 53.7036 101.348 53.6895 102.99 53.6817C106.283 53.6654 109.577 53.6546 112.871 53.6495C114.715 53.6495 116.561 53.6495 118.406 53.6185C118.43 53.6158 118.452 53.6043 118.468 53.5863C118.484 53.5684 118.493 53.5452 118.493 53.5211C118.493 53.4971 118.484 53.4738 118.468 53.4559C118.452 53.4379 118.43 53.4265 118.406 53.4237Z" fill="#0B5D3A"/>
<path d="M118.406 57.4823C115.113 57.4346 111.819 57.4475 108.526 57.4385C105.232 57.4294 101.939 57.4126 98.6457 57.3972C96.801 57.3881 94.9537 57.3636 93.1103 57.4114C93.0658 57.4114 93.0232 57.429 92.9917 57.4605C92.9603 57.4919 92.9426 57.5346 92.9426 57.5791C92.9426 57.6235 92.9603 57.6662 92.9917 57.6976C93.0232 57.7291 93.0658 57.7468 93.1103 57.7468C94.7602 57.7906 96.414 57.7648 98.0665 57.7635C99.719 57.7622 101.348 57.7481 102.99 57.7403C106.283 57.7231 109.577 57.7119 112.871 57.7068C114.715 57.7068 116.561 57.7068 118.406 57.6771C118.43 57.6743 118.452 57.6629 118.468 57.6449C118.484 57.627 118.493 57.6038 118.493 57.5797C118.493 57.5556 118.484 57.5324 118.468 57.5145C118.452 57.4965 118.43 57.4851 118.406 57.4823Z" fill="#0B5D3A"/>
<path d="M118.406 60.0075C115.113 59.9598 111.819 59.974 108.526 59.9649C105.232 59.9559 101.939 59.9391 98.6457 59.9224C96.801 59.9133 94.9537 59.8888 93.1103 59.9378C93.0658 59.9378 93.0232 59.9555 92.9917 59.987C92.9603 60.0184 92.9426 60.0611 92.9426 60.1055C92.9426 60.15 92.9603 60.1927 92.9917 60.2241C93.0232 60.2556 93.0658 60.2732 93.1103 60.2732C94.7602 60.3158 96.414 60.29 98.0665 60.2887C99.719 60.2874 101.348 60.2745 102.99 60.2655C106.283 60.25 109.577 60.2393 112.871 60.2332C114.715 60.2332 116.561 60.2332 118.406 60.2023C118.43 60.1995 118.452 60.1881 118.468 60.1701C118.484 60.1522 118.493 60.129 118.493 60.1049C118.493 60.0808 118.484 60.0576 118.468 60.0397C118.452 60.0217 118.43 60.0103 118.406 60.0075Z" fill="#0B5D3A"/>
<path d="M118.406 62.5331C115.113 62.4854 111.819 62.4996 108.526 62.4905C105.232 62.4815 101.939 62.4647 98.6457 62.448C96.801 62.4389 94.9537 62.4144 93.1103 62.4621C93.0682 62.4658 93.029 62.4852 93.0004 62.5163C92.9719 62.5475 92.9561 62.5882 92.9561 62.6305C92.9561 62.6728 92.9719 62.7135 93.0004 62.7446C93.029 62.7758 93.0682 62.7951 93.1103 62.7988C94.7602 62.8414 96.414 62.8156 98.0665 62.8143C99.719 62.813 101.348 62.7988 102.99 62.7911C106.283 62.7748 109.577 62.764 112.871 62.7588C114.715 62.7588 116.561 62.7588 118.406 62.7279C118.43 62.7251 118.452 62.7137 118.468 62.6957C118.484 62.6778 118.493 62.6545 118.493 62.6305C118.493 62.6064 118.484 62.5832 118.468 62.5653C118.452 62.5473 118.43 62.5358 118.406 62.5331Z" fill="#0B5D3A"/>
<path d="M118.406 65.0585C115.113 65.0108 111.819 65.0237 108.526 65.0146C105.232 65.0056 101.939 64.9888 98.6457 64.9733C96.801 64.9643 94.9537 64.9398 93.1103 64.9875C93.0658 64.9875 93.0232 65.0052 92.9917 65.0367C92.9603 65.0681 92.9426 65.1108 92.9426 65.1552C92.9426 65.1997 92.9603 65.2424 92.9917 65.2738C93.0232 65.3053 93.0658 65.3229 93.1103 65.3229C94.7602 65.3668 96.414 65.341 98.0665 65.3397C99.719 65.3384 101.348 65.3242 102.99 65.3165C106.283 65.3001 109.577 65.289 112.871 65.2829C114.715 65.2829 116.561 65.2829 118.406 65.2533C118.43 65.2505 118.452 65.2391 118.468 65.2211C118.484 65.2032 118.493 65.1799 118.493 65.1559C118.493 65.1318 118.484 65.1086 118.468 65.0906C118.452 65.0727 118.43 65.0612 118.406 65.0585Z" fill="#0B5D3A"/>
<path d="M17.2919 29.2263C17.3841 29.3098 17.5009 29.361 17.6247 29.3721C17.6836 29.3778 17.743 29.373 17.8002 29.3579C17.8294 29.3512 17.8579 29.3417 17.8853 29.3295C17.9303 29.3161 17.9688 29.2867 17.9937 29.247C18.0039 29.2293 18.0092 29.2093 18.0092 29.1889C18.0092 29.1686 18.0039 29.1485 17.9937 29.1309C17.9838 29.1132 17.9694 29.0986 17.9519 29.0883C17.9345 29.0781 17.9146 29.0728 17.8944 29.0728C17.8558 29.0781 17.8188 29.0918 17.786 29.1128C17.7763 29.117 17.7668 29.1218 17.7576 29.127C17.7692 29.127 17.7795 29.1128 17.7576 29.127H17.7434C17.7211 29.1343 17.6982 29.1399 17.6751 29.1438C17.6583 29.1438 17.697 29.1438 17.6815 29.1438H17.6622H17.626H17.5951C17.5835 29.1425 17.5718 29.1425 17.5602 29.1438C17.5602 29.1438 17.5809 29.1438 17.5602 29.1438H17.5448L17.5099 29.136L17.4777 29.1244H17.4712C17.4489 29.1131 17.4273 29.1001 17.4067 29.0857C17.3874 29.0739 17.3645 29.0697 17.3422 29.0738C17.32 29.0779 17.3001 29.0901 17.2863 29.1081C17.2725 29.126 17.2659 29.1484 17.2676 29.171C17.2694 29.1935 17.2794 29.2146 17.2958 29.2302L17.2919 29.2263Z" fill="black"/>
<path d="M18.1369 30.3605C17.7897 30.3491 17.4443 30.3059 17.1049 30.2315C17.0749 30.2203 17.0429 30.2154 17.0109 30.2172C16.979 30.2189 16.9477 30.2273 16.9191 30.2418C16.8534 30.2896 16.8611 30.3915 16.8869 30.4689C16.9395 30.6145 17.0342 30.7413 17.1589 30.8331C17.2836 30.925 17.4327 30.9778 17.5874 30.9849C17.686 30.992 17.784 30.9646 17.8647 30.9075C18.0053 30.7978 18.0169 30.5953 18.0182 30.4173" fill="black"/>
<path d="M18.1369 30.2517C17.8537 30.2301 17.5725 30.187 17.2958 30.1227C17.1668 30.0931 17.0236 30.0337 16.8933 30.0789C16.8253 30.108 16.7699 30.1607 16.7375 30.2272C16.705 30.2938 16.6976 30.3698 16.7166 30.4414C16.744 30.5559 16.7943 30.6637 16.8643 30.7583C16.9344 30.853 17.0228 30.9325 17.1242 30.9922C17.2256 31.0597 17.3405 31.104 17.4609 31.1221C17.5813 31.1401 17.7042 31.1315 17.8208 31.0967C18.1111 30.987 18.1717 30.6865 18.1614 30.4078C18.158 30.372 18.1414 30.3388 18.1148 30.3146C18.0882 30.2904 18.0535 30.277 18.0176 30.277C17.9816 30.277 17.9469 30.2904 17.9203 30.3146C17.8937 30.3388 17.8771 30.372 17.8737 30.4078C17.8722 30.4855 17.8632 30.5628 17.8466 30.6387C17.8428 30.6703 17.8316 30.7006 17.8139 30.727C17.7962 30.7535 17.7725 30.7754 17.7447 30.791C17.6752 30.816 17.6008 30.8246 17.5274 30.8161C17.454 30.8076 17.3836 30.7822 17.3216 30.7419C17.192 30.6732 17.0919 30.5594 17.0404 30.422C17.0404 30.4091 17.0185 30.3304 17.0262 30.3317C17.0339 30.333 17.0133 30.3575 17.0133 30.3588H17.0391C17.1384 30.3678 17.2429 30.3936 17.3448 30.4078C17.6085 30.4454 17.8744 30.4644 18.1408 30.4646C18.1698 30.4646 18.1977 30.453 18.2183 30.4325C18.2389 30.4119 18.2504 30.384 18.2504 30.3549C18.2504 30.3259 18.2389 30.298 18.2183 30.2774C18.1977 30.2568 18.1698 30.2453 18.1408 30.2453L18.1369 30.2517Z" fill="black"/>
<path d="M17.1784 30.6714L17.2738 30.6443H17.2945C17.2945 30.6443 17.3241 30.6443 17.3125 30.6443C17.3009 30.6443 17.3229 30.6443 17.3254 30.6443H17.3499H17.3667C17.3667 30.6443 17.3912 30.6534 17.377 30.6443L17.3886 30.6546C17.3886 30.643 17.4028 30.6688 17.3886 30.6546C17.3886 30.6663 17.3964 30.6779 17.3886 30.6546C17.3971 30.6839 17.4167 30.7087 17.4432 30.7237C17.4698 30.7387 17.5011 30.7426 17.5305 30.7346L17.5654 30.7204C17.5758 30.713 17.5857 30.7048 17.595 30.6959C17.5667 30.714 17.595 30.6959 17.6054 30.6959C17.6157 30.6959 17.6157 30.6959 17.5989 30.6959H17.6144C17.6144 30.6959 17.6518 30.6882 17.6312 30.6959C17.6105 30.7037 17.6441 30.6959 17.6479 30.6959H17.6647C17.6449 30.6959 17.6423 30.6959 17.657 30.6959C17.6647 30.6959 17.6995 30.7114 17.666 30.6959L17.7189 30.7166C17.7443 30.7232 17.7711 30.7213 17.7953 30.7112C17.8195 30.7012 17.8398 30.6834 17.853 30.6607C17.8661 30.6381 17.8715 30.6117 17.8683 30.5856C17.865 30.5596 17.8533 30.5354 17.835 30.5166C17.8013 30.4879 17.7613 30.4676 17.7183 30.4573C17.6752 30.447 17.6303 30.447 17.5873 30.4573C17.5445 30.4632 17.5039 30.4798 17.4692 30.5055C17.4345 30.5312 17.4068 30.5652 17.3886 30.6043L17.5989 30.5772C17.5767 30.5361 17.5443 30.5013 17.5047 30.4762C17.4652 30.4511 17.4199 30.4366 17.3732 30.4341C17.2768 30.4295 17.1819 30.4587 17.1048 30.5166C17.0857 30.5282 17.0713 30.5463 17.0644 30.5677C17.0575 30.589 17.0586 30.6121 17.0674 30.6327C17.0758 30.6537 17.0917 30.6708 17.1119 30.6808C17.1321 30.6908 17.1553 30.693 17.1771 30.6869L17.1784 30.6714Z" fill="#0B5D3A"/>
<path d="M15.722 35.4001C15.8514 34.7821 15.9278 34.1542 15.9503 33.5232C15.9606 33.2072 15.9503 32.8911 15.931 32.5763C15.9168 32.348 15.8858 32.1223 15.682 31.9855C15.5298 31.8836 15.3956 32.1248 15.5401 32.2293C15.624 32.29 15.6123 32.4538 15.6188 32.5441C15.6265 32.6731 15.633 32.8021 15.6369 32.9234C15.6459 33.1955 15.6498 33.4703 15.6472 33.7438C15.639 34.2898 15.6011 34.835 15.5337 35.3769C15.5195 35.4853 15.7026 35.5059 15.7246 35.4027L15.722 35.4001Z" fill="black"/>
<path d="M19.7519 35.5196C19.7945 34.9107 19.8254 34.2992 19.8538 33.6891C19.868 33.4027 19.8783 33.1176 19.8899 32.8312C19.9002 32.5564 19.9591 32.2856 20.0641 32.0314C20.1299 31.8663 19.8796 31.7824 19.7906 31.9153C19.6617 32.1449 19.5912 32.4028 19.5855 32.6661C19.5597 32.9744 19.5636 33.2853 19.5597 33.5949C19.552 34.2399 19.5455 34.8784 19.552 35.5196C19.5548 35.5441 19.5665 35.5668 19.5849 35.5833C19.6034 35.5997 19.6272 35.6088 19.6519 35.6088C19.6766 35.6088 19.7005 35.5997 19.7189 35.5833C19.7374 35.5668 19.7491 35.5441 19.7519 35.5196Z" fill="black"/>
<path d="M15.3054 35.2208C15.3776 35.6736 15.8459 35.9793 16.1748 36.2528C16.5597 36.5844 16.9952 36.8523 17.4648 37.0462C17.6932 37.1339 17.9357 37.201 18.1718 37.1029C18.3938 36.9892 18.5991 36.8456 18.7819 36.6759C19.2085 36.3313 19.6059 35.952 19.97 35.542C20.099 35.395 19.8849 35.177 19.752 35.3253C19.4403 35.6764 19.1041 36.0049 18.7458 36.3083C18.5689 36.4636 18.3833 36.6088 18.1898 36.743C17.9718 36.8901 17.7783 36.8385 17.5448 36.7533C17.1272 36.5819 16.7363 36.3516 16.3838 36.0696C16.0626 35.8323 15.624 35.573 15.4911 35.1731C15.4826 35.1502 15.4657 35.1313 15.444 35.1201C15.4222 35.109 15.397 35.1064 15.3734 35.1129C15.3498 35.1193 15.3295 35.1344 15.3164 35.1551C15.3033 35.1758 15.2985 35.2006 15.3028 35.2247L15.3054 35.2208Z" fill="black"/>
<path d="M9.56357 38.0966C9.58752 38.0966 9.61048 38.0871 9.62742 38.0702C9.64435 38.0532 9.65387 38.0303 9.65387 38.0063C9.65387 37.9824 9.64435 37.9594 9.62742 37.9425C9.61048 37.9255 9.58752 37.916 9.56357 37.916C9.53962 37.916 9.51665 37.9255 9.49971 37.9425C9.48278 37.9594 9.47327 37.9824 9.47327 38.0063C9.47327 38.0303 9.48278 38.0532 9.49971 38.0702C9.51665 38.0871 9.53962 38.0966 9.56357 38.0966Z" fill="black"/>
<path d="M9.13272 38.2539C8.13555 38.7041 7.38864 39.5878 6.89586 40.5656C6.40308 41.5434 6.13863 42.6128 5.87676 43.6745L4.51452 49.2125C4.21704 50.3331 3.98318 51.4697 3.81405 52.6168C3.62958 54.0551 3.6786 55.6096 4.47195 56.8235C5.37495 58.2038 7.0326 58.8617 8.62059 59.3003C12.169 60.2789 15.8698 60.5817 19.5301 60.1929C19.6886 60.1917 19.8427 60.1403 19.97 60.0459C20.0666 59.9375 20.1285 59.8027 20.148 59.6589C20.2693 59.1247 20.3299 58.5786 20.3286 58.0309C20.3415 57.8243 20.3029 57.6178 20.2164 57.4298C20.0874 57.2053 19.8565 57.0711 19.6256 56.9602C18.7406 56.5319 17.7835 56.2778 16.8443 55.9875C13.9857 55.1026 11.2522 53.859 8.529 52.6193C8.3613 52.7122 8.45805 53.0283 8.64768 53.0128C9.38814 50.6237 10.0817 48.2217 10.7284 45.8069" fill="black"/>
<path d="M9.08491 38.1689C8.37021 38.4846 7.75356 38.9868 7.29955 39.6227C6.80942 40.3195 6.43723 41.0922 6.19789 41.9099C5.91796 42.7987 5.70898 43.7159 5.48452 44.6292L4.78018 47.4917C4.32481 49.3351 3.7714 51.1953 3.60628 53.0942C3.46696 54.6809 3.69916 56.3579 4.84081 57.5395C5.90248 58.6437 7.43113 59.152 8.87335 59.5351C10.702 60.0193 12.5729 60.3269 14.4603 60.4536C15.3956 60.5168 16.3347 60.5362 17.2725 60.5091C17.7404 60.4945 18.2086 60.4695 18.6774 60.4343C18.9005 60.4162 19.1237 60.3969 19.3469 60.3736C19.548 60.3709 19.7471 60.3329 19.9351 60.2614C20.304 60.0808 20.3389 59.5854 20.3943 59.2294C20.4736 58.7795 20.5034 58.3223 20.4834 57.8659C20.479 57.6757 20.4248 57.4901 20.326 57.3275C20.2273 57.1649 20.0876 57.0312 19.9209 56.9397C19.5212 56.72 19.1013 56.5395 18.667 56.4004C17.7898 56.0882 16.8855 55.8509 16.0032 55.5529C15.1208 55.2549 14.2152 54.9156 13.3367 54.5596C12.4583 54.2036 11.5707 53.8204 10.6974 53.4321C10.2627 53.2386 9.83053 53.0451 9.39709 52.8478L8.77789 52.5653C8.60632 52.4879 8.44507 52.4066 8.32897 52.6078C8.29862 52.6651 8.28313 52.729 8.2839 52.7938C8.28468 52.8585 8.3017 52.9221 8.33341 52.9786C8.36512 53.0351 8.4105 53.0827 8.4654 53.1171C8.52029 53.1515 8.58294 53.1715 8.6476 53.1754C8.6821 53.1751 8.71556 53.1636 8.74299 53.1427C8.77043 53.1217 8.79036 53.0925 8.79982 53.0593C9.53899 50.6715 10.2407 48.2709 10.887 45.856C10.895 45.8152 10.8872 45.7729 10.8653 45.7375C10.8434 45.7022 10.809 45.6764 10.7689 45.6653C10.7289 45.6543 10.6861 45.6587 10.6492 45.6778C10.6122 45.6969 10.5839 45.7292 10.5697 45.7683C9.92212 48.184 9.23154 50.586 8.49796 52.9742L8.65018 52.8581C8.61793 52.8581 8.57923 52.782 8.61019 52.76H8.44894C10.0589 53.4928 11.6739 54.2255 13.3097 54.8873C14.112 55.2111 14.9234 55.5181 15.7426 55.7993C16.5617 56.0805 17.4119 56.3153 18.2413 56.5888C18.6579 56.7224 19.0663 56.8805 19.4642 57.0622C19.6283 57.1308 19.7827 57.2206 19.9235 57.3292C19.9986 57.3968 20.0588 57.4793 20.1001 57.5715C20.1415 57.6637 20.163 57.7635 20.1634 57.8646C20.1839 58.2924 20.1571 58.7211 20.0834 59.143C20.0567 59.3352 20.0184 59.5256 19.9686 59.7132C19.9041 59.9376 19.7751 60.0008 19.5533 60.0279C17.8218 60.2259 16.0752 60.257 14.3378 60.1208C12.6024 59.9971 10.8815 59.7182 9.19585 59.2875C7.822 58.9366 6.35785 58.5031 5.28844 57.5318C4.75098 57.0484 4.35314 56.4296 4.13647 55.74C3.92093 55.0032 3.83838 54.234 3.89266 53.4683C3.97909 51.7435 4.468 50.0511 4.87822 48.3831C5.31166 46.6145 5.7322 44.842 6.18241 43.0773C6.3728 42.2571 6.64596 41.4584 6.99769 40.6934C7.32042 40.0349 7.76165 39.4415 8.2993 38.9429C8.5607 38.6984 8.85725 38.4945 9.17908 38.3379C9.28873 38.2837 9.19327 38.1302 9.08491 38.1766V38.1689Z" fill="black"/>
<path d="M23.026 56.8733C22.5229 56.5934 21.9217 56.6759 21.3838 56.8036C20.7935 56.929 20.2346 57.172 19.7404 57.5183C19.5701 57.6473 19.7171 57.9311 19.9145 57.815C20.1532 57.6757 20.3776 57.5221 20.6279 57.3996C20.8634 57.2858 21.107 57.1896 21.3567 57.1119C21.8495 56.9584 22.43 56.8088 22.9189 57.0461C23.0402 57.1055 23.1472 56.93 23.026 56.8642V56.8733Z" fill="black"/>
<path d="M24.5843 57.7307C24.0837 57.7385 23.5845 57.7217 23.0853 57.692C22.8402 57.6778 22.5964 57.6585 22.3513 57.634C22.1062 57.6095 21.843 57.5514 21.5915 57.5488C21.5589 57.549 21.5274 57.561 21.5029 57.5826C21.4784 57.6041 21.4625 57.6337 21.4581 57.666C21.4538 57.6983 21.4612 57.7312 21.479 57.7584C21.4969 57.7857 21.524 57.8057 21.5553 57.8146C21.7985 57.8631 22.0453 57.8912 22.2932 57.8984C22.5512 57.9191 22.8054 57.9341 23.0556 57.9436C23.5716 57.9616 24.076 57.95 24.5843 57.9203C24.6075 57.9176 24.6289 57.9065 24.6445 57.889C24.66 57.8715 24.6686 57.8489 24.6686 57.8255C24.6686 57.8021 24.66 57.7796 24.6445 57.7621C24.6289 57.7446 24.6075 57.7334 24.5843 57.7307Z" fill="black"/>
<path d="M23.8309 60.5926C23.0959 60.6968 22.3482 60.6702 21.6224 60.5139C21.269 60.4456 20.922 60.3553 20.5762 60.2559C20.2305 60.1566 19.8771 60.0108 19.5223 59.9089C19.3443 59.856 19.214 60.1372 19.3933 60.2185C19.7484 60.3671 20.1141 60.4891 20.4872 60.5836C20.863 60.6885 21.2452 60.7686 21.6315 60.8235C22.3789 60.9335 23.1396 60.9161 23.8812 60.7719C23.9973 60.7487 23.947 60.5758 23.8322 60.5952L23.8309 60.5926Z" fill="black"/>
<path d="M24.5804 58.6104C24.4202 58.6473 24.257 58.6702 24.0928 58.6788C24.0115 58.6788 23.929 58.6788 23.8464 58.6788C23.7543 58.6585 23.6584 58.6638 23.5691 58.6943C23.5539 58.7033 23.541 58.7157 23.5313 58.7304C23.5216 58.7451 23.5154 58.7618 23.513 58.7793C23.5107 58.7968 23.5123 58.8146 23.5177 58.8313C23.5232 58.8481 23.5324 58.8634 23.5445 58.8762C23.6349 58.9336 23.7435 58.9552 23.849 58.9368C24.1166 58.9332 24.3813 58.8817 24.6307 58.7846C24.6534 58.7776 24.6725 58.762 24.6839 58.7413C24.6954 58.7205 24.6983 58.6961 24.6921 58.6732C24.6859 58.6503 24.6711 58.6307 24.6507 58.6185C24.6304 58.6063 24.6061 58.6025 24.583 58.6078L24.5804 58.6104Z" fill="black"/>
<path d="M24.5353 59.6171C24.3353 59.6171 24.1367 59.6016 23.938 59.5874C23.84 59.5809 23.7419 59.5745 23.6452 59.5642C23.5447 59.5487 23.4435 59.5384 23.342 59.5332C23.309 59.5332 23.2771 59.5451 23.2521 59.5667C23.2272 59.5884 23.2109 59.6183 23.2064 59.6511C23.2018 59.6838 23.2093 59.717 23.2273 59.7447C23.2454 59.7723 23.2728 59.7925 23.3046 59.8015C23.4095 59.8192 23.5156 59.8278 23.6219 59.8273C23.7226 59.8273 23.8245 59.8338 23.9264 59.8338C24.1289 59.8338 24.3327 59.8196 24.5353 59.8002C24.5596 59.8002 24.5829 59.7906 24.6 59.7734C24.6172 59.7562 24.6269 59.7329 24.6269 59.7086C24.6269 59.6844 24.6172 59.6611 24.6 59.6439C24.5829 59.6267 24.5596 59.6171 24.5353 59.6171Z" fill="black"/>
<path d="M25.4344 38.0723L31.6264 41.2457C32.3514 41.6172 33.0906 41.9926 33.8955 42.1242C34.965 42.2983 36.055 42.0235 37.0857 41.6868C39.2516 40.9786 41.313 39.9905 43.377 39.0243C43.9047 38.7779 44.48 38.5251 45.054 38.6489C45.7352 38.7972 46.188 39.4345 46.5117 40.0524C46.6898 40.3917 46.8523 40.7568 46.8407 41.1399C46.8175 41.8429 46.2279 42.3796 45.6797 42.8169C43.8634 44.2939 41.9929 45.7426 39.8747 46.7359C37.2483 47.9666 34.2929 47.8827 31.5039 47.3409C28.7652 46.8094 25.8563 46.0651 23.4736 44.5674" fill="black"/>
<path d="M25.3879 38.1547C26.985 39.0151 28.5987 39.8433 30.2112 40.6754C30.9852 41.0753 31.7592 41.5074 32.5526 41.857C33.2897 42.2013 34.0994 42.3611 34.912 42.3227C35.7531 42.2685 36.5684 42.0273 37.363 41.7603C38.1576 41.4932 38.9703 41.1759 39.7572 40.8444C40.5441 40.5128 41.3375 40.1516 42.1192 39.7878C42.5062 39.606 42.901 39.4228 43.2918 39.2396C43.6632 39.0424 44.0587 38.8945 44.4683 38.7997C45.2423 38.663 45.8022 39.1867 46.1814 39.7982C46.3967 40.1175 46.5555 40.4713 46.651 40.8444C46.6839 41.0207 46.6801 41.202 46.64 41.3769C46.5998 41.5518 46.5241 41.7165 46.4175 41.8609C46.2081 42.1457 45.9602 42.4001 45.6809 42.6168C45.3739 42.8748 45.0617 43.1186 44.7508 43.3663C44.1058 43.8823 43.4415 44.3841 42.7604 44.8575C41.4278 45.7799 39.9946 46.6545 38.426 47.1009C36.878 47.5395 35.2539 47.6001 33.6633 47.4556C32.0934 47.3137 30.5337 46.9719 29.0103 46.5758C27.4864 46.1953 26.0094 45.6472 24.6062 44.9414C24.2618 44.7647 23.9238 44.5725 23.5961 44.3673C23.3381 44.2035 23.093 44.6176 23.3536 44.7814C24.7313 45.647 26.2509 46.2443 27.8093 46.6971C29.3647 47.1516 30.9502 47.4965 32.5539 47.7291C34.1844 47.9626 35.8447 48.0116 37.4688 47.6968C39.0929 47.3821 40.6074 46.6339 42.0109 45.7451C43.4046 44.8507 44.7336 43.8593 45.9879 42.7781C46.5039 42.3369 47.0406 41.7564 47.0006 41.025C46.9774 40.6186 46.7968 40.2406 46.6059 39.8885C46.4435 39.5753 46.2391 39.2858 45.9983 39.028C45.7771 38.7916 45.4984 38.6165 45.1894 38.5198C44.7923 38.4225 44.3749 38.4496 43.9936 38.5972C43.5974 38.7477 43.2098 38.9199 42.8326 39.1132C42.4327 39.3002 42.0328 39.4886 41.6316 39.673C40.0101 40.4238 38.364 41.1514 36.6496 41.6674C35.8215 41.9163 34.952 42.0995 34.0825 41.9989C33.2337 41.9022 32.4584 41.5048 31.7076 41.1243C30.041 40.2763 28.3734 39.4318 26.705 38.5907C26.3013 38.3882 25.8949 38.1921 25.4886 37.9947C25.3815 37.9431 25.2873 38.0979 25.3944 38.156L25.3879 38.1547Z" fill="black"/>
<path d="M44.876 39.0711C45.0295 38.5551 45.0785 37.9991 45.2785 37.4934C45.3864 37.2354 45.55 37.0045 45.7576 36.8171C45.9653 36.6298 46.2118 36.4907 46.4795 36.4098C46.7733 36.3164 47.0758 36.2529 47.3825 36.2202C47.536 36.2021 47.6921 36.1828 47.8456 36.1712C47.9991 36.1596 48.1552 36.1634 48.1719 36.3427C48.199 36.6188 47.8211 36.8497 47.6237 36.9761C47.3708 37.1382 47.0951 37.2616 46.8058 37.3425C46.781 37.3501 46.7586 37.3639 46.7407 37.3826C46.7227 37.4013 46.7099 37.4242 46.7033 37.4493C46.6967 37.4744 46.6966 37.5007 46.703 37.5258C46.7095 37.5509 46.7222 37.574 46.74 37.5928C46.8373 37.7138 46.9017 37.8579 46.927 38.0111C46.9523 38.1643 46.9377 38.3215 46.8845 38.4674C46.8394 38.6196 47.0793 38.7254 47.1425 38.5783C47.2258 38.3805 47.2515 38.1633 47.2169 37.9515C47.1822 37.7398 47.0884 37.5421 46.9464 37.3812L46.8806 37.6315C47.3876 37.487 47.9539 37.2135 48.2932 36.7942C48.3697 36.7103 48.4221 36.6073 48.4448 36.496C48.4675 36.3847 48.4597 36.2693 48.4222 36.1621C48.3229 35.9209 48.0791 35.8629 47.8404 35.8796C46.7684 35.9557 45.5326 36.1996 45.0695 37.2986C44.8386 37.8443 44.8115 38.4454 44.6722 39.0156C44.6648 39.0427 44.6685 39.0715 44.6824 39.0958C44.6963 39.1201 44.7193 39.1379 44.7463 39.1453C44.7734 39.1526 44.8022 39.1489 44.8265 39.135C44.8508 39.1211 44.8686 39.0981 44.876 39.0711Z" fill="black"/>
<path d="M49.4877 34.8405C49.0457 34.8988 48.6175 35.0356 48.2235 35.2443C47.8168 35.4513 47.4303 35.6957 47.069 35.9744C46.9516 36.0673 47.1025 36.2518 47.2264 36.1783C47.4121 36.0712 47.585 35.9383 47.7656 35.8222C47.9462 35.7061 48.1306 35.5952 48.3203 35.492C48.6931 35.28 49.0939 35.1215 49.5109 35.0211C49.6103 34.9992 49.5909 34.8276 49.4864 34.8405H49.4877Z" fill="black"/>
<path d="M48.8324 36.5471C48.9 36.5811 48.9582 36.631 49.002 36.6926C49.0459 36.7542 49.074 36.8256 49.084 36.9006C49.0947 36.9844 49.0908 37.0696 49.0724 37.1521C49.0493 37.2515 49.0151 37.348 48.9705 37.4398C48.9533 37.4709 48.9488 37.5075 48.958 37.5418C48.9671 37.5762 48.9891 37.6057 49.0195 37.6242C49.0348 37.6333 49.0518 37.6393 49.0694 37.6418C49.0871 37.6443 49.105 37.6434 49.1223 37.6389C49.1395 37.6345 49.1557 37.6267 49.17 37.616C49.1842 37.6053 49.1962 37.5919 49.2053 37.5765C49.3276 37.347 49.3694 37.0831 49.3239 36.827C49.3013 36.721 49.2506 36.623 49.1771 36.5433C49.1035 36.4636 49.0099 36.4052 48.906 36.3742C48.8054 36.3471 48.7318 36.5032 48.8324 36.5471Z" fill="black"/>
<path d="M49.7586 37.4022C49.7817 37.6359 49.742 37.8714 49.6438 38.0846C49.5371 38.2958 49.3857 38.4811 49.2 38.6277C49.0955 38.718 49.231 38.8857 49.3471 38.8174C49.5804 38.6614 49.7583 38.4356 49.8554 38.1724C49.9568 37.9196 49.9876 37.644 49.9444 37.3751C49.9276 37.2719 49.747 37.2952 49.7586 37.4009V37.4022Z" fill="black"/>
<path d="M49.8451 38.7622C49.9251 39.0525 49.6942 39.3079 49.5316 39.5298C49.446 39.6511 49.3529 39.767 49.253 39.8768C49.2084 39.9355 49.148 39.9803 49.0788 40.0058C49.0453 40.0058 48.9395 40.0058 48.9498 39.9452C48.9834 39.8045 48.7989 39.6755 48.6918 39.7955C48.4163 40.128 48.085 40.41 47.7127 40.6289C47.3299 40.8372 46.8912 40.9198 46.4589 40.8649C46.2808 40.8456 46.2486 41.1307 46.4176 41.1732C47.4006 41.4235 48.3178 40.723 48.9086 40.0122L48.6506 39.8639C48.6407 39.9117 48.6404 39.961 48.6498 40.0089C48.6593 40.0569 48.6782 40.1024 48.7055 40.1429C48.7327 40.1834 48.7678 40.2181 48.8087 40.2448C48.8496 40.2715 48.8954 40.2898 48.9434 40.2986C49.1924 40.3554 49.3897 40.1554 49.5278 39.9787C49.7062 39.7655 49.8618 39.5341 49.9922 39.2885C50.0863 39.0938 50.1418 38.8525 49.9922 38.6706C49.9303 38.5945 49.8103 38.6771 49.8348 38.7635L49.8451 38.7622Z" fill="black"/>
<path d="M17.9678 38.0586C17.8988 38.0825 17.8343 38.1178 17.7769 38.1631C17.7463 38.1888 17.7221 38.2213 17.7062 38.2581C17.6903 38.2948 17.6831 38.3347 17.6853 38.3746C17.6871 38.4181 17.6999 38.4604 17.7225 38.4977C17.745 38.5349 17.7766 38.5658 17.8143 38.5875C17.865 38.6143 17.9239 38.6212 17.9794 38.6068C18.0277 38.5898 18.0717 38.5625 18.1084 38.5269C18.1354 38.5035 18.1564 38.4739 18.1694 38.4406C18.1824 38.4074 18.1872 38.3714 18.1833 38.3359C18.1722 38.2811 18.1458 38.2306 18.1072 38.1902L18.1291 38.2198C18.1243 38.2144 18.1204 38.2084 18.1175 38.2018L18.1317 38.2353V38.2727V38.2637V38.3011L18.1188 38.3347C18.1287 38.3189 18.1352 38.3012 18.1376 38.2827C18.1401 38.2642 18.1385 38.2454 18.133 38.2276C18.1248 38.1985 18.1076 38.1728 18.0839 38.1541C18.0569 38.1336 18.0234 38.1236 17.9895 38.1257C17.9557 38.1278 17.9238 38.142 17.8995 38.1657C17.8786 38.1871 17.8638 38.2136 17.8565 38.2426C17.8493 38.2717 17.8498 38.3021 17.8582 38.3308C17.8714 38.3687 17.8925 38.4035 17.9201 38.4327L17.8982 38.4043C17.9047 38.4127 17.9103 38.4218 17.9149 38.4314L17.9008 38.3979C17.9011 38.4022 17.9011 38.4065 17.9008 38.4108V38.3734V38.3875V38.3501V38.363L17.9149 38.3295C17.9119 38.3372 17.908 38.3445 17.9033 38.3514L17.9253 38.323C17.9144 38.3367 17.9019 38.3488 17.8878 38.3592L17.9162 38.3372C17.9038 38.3478 17.8899 38.3565 17.875 38.363L17.9098 38.3488L17.8801 38.3579H17.9175H17.8956H17.933H17.9124L17.9446 38.3708C17.937 38.3677 17.93 38.3634 17.924 38.3579L17.9511 38.3798C17.9432 38.3735 17.9363 38.3661 17.9304 38.3579L17.9511 38.385C17.9447 38.3755 17.9391 38.3656 17.9343 38.3553L17.9472 38.3875C17.9472 38.3746 17.9395 38.3617 17.9369 38.3488V38.3837C17.9356 38.3721 17.9356 38.3604 17.9369 38.3488V38.3824C17.9404 38.3653 17.9451 38.3485 17.9511 38.3321L17.9382 38.3617C17.946 38.3443 17.956 38.3278 17.9678 38.3127L17.9498 38.3359C17.9804 38.2991 18.0155 38.2661 18.0543 38.2379C18.0694 38.2237 18.0786 38.2044 18.0801 38.1837C18.0831 38.1633 18.0795 38.1425 18.0697 38.1244C18.0609 38.1114 18.0495 38.1005 18.0362 38.0921C18.0255 38.0857 18.0135 38.0815 18.0011 38.0797C17.9887 38.0779 17.9761 38.0786 17.964 38.0818L17.9678 38.0586Z" fill="#0B5D3A"/>
<path d="M17.9678 39.5356C17.8988 39.5596 17.8343 39.5949 17.7769 39.6401C17.7463 39.6659 17.7221 39.6984 17.7062 39.7351C17.6903 39.7718 17.6831 39.8117 17.6853 39.8517C17.6871 39.8952 17.6999 39.9375 17.7225 39.9747C17.745 40.0119 17.7766 40.0428 17.8143 40.0645C17.865 40.0914 17.9239 40.0983 17.9794 40.0839C18.0277 40.0669 18.0717 40.0396 18.1084 40.0039C18.1354 39.9805 18.1564 39.9509 18.1694 39.9177C18.1824 39.8844 18.1872 39.8485 18.1833 39.813C18.1722 39.7582 18.1458 39.7076 18.1072 39.6672L18.1291 39.6969C18.1243 39.6915 18.1204 39.6854 18.1175 39.6788L18.1317 39.7124C18.1317 39.7124 18.1317 39.7124 18.1317 39.7059V39.7433V39.7343V39.7717L18.1188 39.8053C18.1181 39.8032 18.1181 39.8009 18.1188 39.7988C18.1287 39.783 18.1352 39.7653 18.1376 39.7468C18.1401 39.7283 18.1385 39.7095 18.133 39.6917C18.1248 39.6627 18.1076 39.6369 18.0839 39.6182C18.0569 39.5978 18.0234 39.5877 17.9895 39.5899C17.9557 39.592 17.9238 39.6062 17.8995 39.6298C17.8786 39.6512 17.8638 39.6778 17.8565 39.7068C17.8493 39.7358 17.8498 39.7662 17.8582 39.7949C17.8714 39.8329 17.8925 39.8676 17.9201 39.8968L17.8982 39.8685C17.9047 39.8769 17.9103 39.886 17.9149 39.8956L17.9008 39.862C17.9011 39.8663 17.9011 39.8706 17.9008 39.8749V39.8375V39.844V39.8065V39.8194L17.9149 39.7859C17.9119 39.7936 17.908 39.801 17.9033 39.8078L17.9253 39.7795C17.9144 39.7931 17.9019 39.8052 17.8878 39.8156L17.9162 39.7936C17.9038 39.8042 17.8899 39.8129 17.875 39.8194L17.9098 39.8053L17.8801 39.8143H17.9175H17.8956H17.933H17.9124L17.9446 39.8272C17.937 39.8241 17.93 39.8198 17.924 39.8143L17.9511 39.8362C17.9432 39.8299 17.9363 39.8225 17.9304 39.8143L17.9511 39.8414C17.9447 39.8319 17.9391 39.822 17.9343 39.8117L17.9472 39.844C17.9472 39.8311 17.9395 39.8182 17.9369 39.8053V39.8401C17.9356 39.8285 17.9356 39.8168 17.9369 39.8053V39.8388C17.9404 39.8217 17.9451 39.8049 17.9511 39.7885L17.9382 39.8182C17.946 39.8007 17.956 39.7842 17.9678 39.7691L17.9498 39.7924C17.9804 39.7555 18.0155 39.7225 18.0543 39.6943C18.0694 39.6801 18.0786 39.6608 18.0801 39.6401C18.0831 39.6198 18.0795 39.5989 18.0697 39.5808C18.0609 39.5678 18.0495 39.5569 18.0362 39.5485C18.0255 39.5421 18.0135 39.5379 18.0011 39.5361C17.9887 39.5343 17.9761 39.5351 17.964 39.5382L17.9678 39.5356Z" fill="#0B5D3A"/>
<path d="M17.9678 41.0122C17.8988 41.0361 17.8343 41.0714 17.7769 41.1167C17.7463 41.1424 17.7221 41.175 17.7062 41.2117C17.6903 41.2484 17.6831 41.2883 17.6853 41.3283C17.6871 41.3717 17.6999 41.4141 17.7225 41.4513C17.745 41.4885 17.7766 41.5194 17.8143 41.5411C17.865 41.568 17.9239 41.5749 17.9794 41.5605C18.0277 41.5434 18.0717 41.5161 18.1084 41.4805C18.1354 41.4571 18.1564 41.4275 18.1694 41.3942C18.1824 41.361 18.1872 41.3251 18.1833 41.2896C18.1722 41.2347 18.1458 41.1842 18.1072 41.1438L18.1291 41.1735C18.1243 41.1681 18.1204 41.162 18.1175 41.1554L18.1317 41.1889C18.1317 41.1889 18.1317 41.1889 18.1317 41.1825V41.2199V41.2109V41.2483L18.1188 41.2818C18.1181 41.2797 18.1181 41.2775 18.1188 41.2754C18.1287 41.2596 18.1352 41.2419 18.1376 41.2234C18.1401 41.2049 18.1385 41.1861 18.133 41.1683C18.1248 41.1392 18.1076 41.1135 18.0839 41.0948C18.0569 41.0743 18.0234 41.0643 17.9895 41.0664C17.9557 41.0685 17.9238 41.0827 17.8995 41.1064C17.8786 41.1278 17.8638 41.1544 17.8565 41.1834C17.8493 41.2124 17.8498 41.2428 17.8582 41.2715C17.8714 41.3095 17.8925 41.3442 17.9201 41.3734L17.8982 41.345C17.9047 41.3535 17.9103 41.3625 17.9149 41.3721L17.9008 41.3386C17.9011 41.3429 17.9011 41.3472 17.9008 41.3515V41.3141V41.3283V41.2908V41.3037L17.9149 41.2625C17.9119 41.2702 17.908 41.2775 17.9033 41.2844L17.9253 41.256C17.9144 41.2697 17.9019 41.2818 17.8878 41.2921L17.9162 41.2702C17.9038 41.2807 17.8899 41.2894 17.875 41.296L17.9098 41.2818L17.8801 41.2908H17.9175H17.8956H17.933H17.9124L17.9446 41.3037C17.937 41.3007 17.93 41.2963 17.924 41.2908L17.9511 41.3128C17.9432 41.3064 17.9363 41.2991 17.9304 41.2908L17.9511 41.3179C17.9447 41.3085 17.9391 41.2986 17.9343 41.2883L17.9472 41.3205C17.9472 41.3076 17.9395 41.2947 17.9369 41.2818V41.3167C17.9356 41.3051 17.9356 41.2934 17.9369 41.2818V41.3154C17.9404 41.2983 17.9451 41.2815 17.9511 41.265L17.9382 41.2947C17.946 41.2772 17.956 41.2608 17.9678 41.2457L17.9498 41.2689C17.9804 41.232 18.0155 41.1991 18.0543 41.1709C18.0694 41.1567 18.0786 41.1374 18.0801 41.1167C18.0831 41.0963 18.0795 41.0755 18.0697 41.0574C18.0609 41.0444 18.0495 41.0334 18.0362 41.0251C18.0255 41.0187 18.0135 41.0144 18.0011 41.0127C17.9887 41.0109 17.9761 41.0116 17.964 41.0148L17.9678 41.0122Z" fill="#0B5D3A"/>
<path d="M84.866 40.4653C86.9087 37.5914 89.3275 35.0043 92.0577 32.773C93.2303 31.8146 94.7474 30.8755 96.1664 31.4044C96.6824 31.594 97.1648 31.9694 97.6989 31.8739C97.9801 31.8236 98.2149 31.6456 98.4471 31.4714C101.024 29.4908 103.369 27.2259 105.439 24.7196C105.135 24.18 104.731 23.7035 104.248 23.3161C106.71 22.2759 109.256 21.4494 111.859 20.8457C111.374 23.3375 110.689 25.7861 109.811 28.1677C109.232 27.8916 108.705 27.5166 108.255 27.0596C106.753 29.6177 105.159 32.1616 103.064 34.2565C102.353 34.9648 100.721 36.2535 99.79 36.6276C98.7864 37.0326 97.1119 35.9077 96.1612 36.4263C93.4251 37.9189 91.623 40.5195 89.4029 43.2633C89.1359 43.5936 88.8353 43.9432 88.4199 44.0373C87.9645 44.1354 87.5079 43.8903 87.1299 43.6116C86.2287 42.9408 85.5239 42.0405 85.0891 41.0045" fill="#0B5D3A"/>
<path d="M84.9563 40.5226C86.0193 39.0482 87.1831 37.6491 88.4393 36.3353C89.6632 35.036 90.9813 33.8288 92.3828 32.7233C93.0626 32.1957 93.8237 31.699 94.6725 31.5042C95.0638 31.4101 95.4719 31.4101 95.8632 31.5042C96.2799 31.61 96.6372 31.8564 97.0448 31.9906C97.2304 32.0573 97.4285 32.082 97.6247 32.0631C97.821 32.0441 98.0107 31.9819 98.18 31.8809C98.5576 31.6366 98.9167 31.365 99.2546 31.0682C99.9641 30.5006 100.655 29.9111 101.326 29.2996C102.841 27.9195 104.257 26.434 105.563 24.8543C105.589 24.8256 105.606 24.7893 105.612 24.7505C105.617 24.7116 105.609 24.6722 105.591 24.6376C105.277 24.0864 104.864 23.5983 104.372 23.1979L104.336 23.4792C106.237 22.6766 108.191 22.0022 110.182 21.4603C110.752 21.3055 111.326 21.161 111.902 21.0269L111.681 20.8063C111.194 23.2949 110.51 25.7408 109.634 28.1206L109.892 28.0135C109.327 27.7424 108.814 27.3768 108.372 26.9325C108.353 26.9134 108.329 26.899 108.303 26.8903C108.277 26.8816 108.25 26.8789 108.222 26.8824C108.195 26.8858 108.169 26.8954 108.146 26.9103C108.123 26.9253 108.104 26.9452 108.09 26.9686C106.885 29.021 105.635 31.0631 104.087 32.8781C103.452 33.6361 102.75 34.3347 101.988 34.9653C101.613 35.2698 101.227 35.56 100.827 35.8296C100.492 36.0711 100.133 36.2778 99.7564 36.4462C99.4068 36.5907 99.0147 36.5365 98.6548 36.463C98.2187 36.3753 97.793 36.2411 97.3544 36.1637C96.9778 36.0966 96.5688 36.0592 96.2051 36.2063C95.9802 36.3082 95.7645 36.4291 95.5601 36.5675C95.3369 36.7055 95.1176 36.8539 94.9047 37.0074C93.131 38.2974 91.7533 40.0208 90.4039 41.721C90.0401 42.179 89.679 42.6382 89.3113 43.0923C88.9901 43.4896 88.6095 43.9682 88.0355 43.8599C87.4924 43.758 87.0035 43.3116 86.6281 42.9375C86.2399 42.5572 85.9041 42.1269 85.6296 41.6578C85.496 41.4307 85.3775 41.1949 85.2749 40.9522C85.1846 40.7406 84.8324 40.8335 84.924 41.049C85.3497 42.0741 86.031 42.973 86.9029 43.6599C87.344 44.0043 87.8846 44.3385 88.4702 44.212C89.0056 44.0959 89.3564 43.6148 89.6789 43.2136C91.1134 41.4269 92.4757 39.5397 94.2081 38.0239C94.6115 37.6694 95.0382 37.3423 95.4852 37.0448C95.849 36.8049 96.2515 36.4888 96.7043 36.4695C97.5828 36.4295 98.4045 36.9055 99.2843 36.8977C99.6868 36.8977 100.031 36.7339 100.377 36.5404C100.782 36.3063 101.172 36.0479 101.546 35.7664C102.319 35.2001 103.038 34.564 103.695 33.8662C105.356 32.0835 106.694 30.0324 107.941 27.9464C108.099 27.6815 108.256 27.4162 108.412 27.1505L108.13 27.1866C108.592 27.6534 109.13 28.0382 109.722 28.3244C109.745 28.3363 109.772 28.3429 109.798 28.3437C109.825 28.3446 109.851 28.3397 109.876 28.3295C109.9 28.3192 109.922 28.3037 109.94 28.2841C109.958 28.2646 109.972 28.2413 109.98 28.216C110.856 25.8337 111.54 23.3853 112.027 20.894C112.035 20.8635 112.034 20.8316 112.026 20.8013C112.017 20.771 112.001 20.7435 111.979 20.7212C111.957 20.699 111.929 20.6829 111.899 20.6746C111.869 20.6662 111.837 20.6658 111.806 20.6734C109.771 21.146 107.769 21.755 105.816 22.4962C105.257 22.7077 104.703 22.9296 104.155 23.1618C104.132 23.1757 104.112 23.1948 104.097 23.2176C104.081 23.2404 104.072 23.2664 104.068 23.2936C104.065 23.3207 104.068 23.3483 104.076 23.3742C104.085 23.4001 104.1 23.4237 104.119 23.443C104.588 23.8228 104.982 24.2865 105.28 24.8104L105.307 24.5937C104.137 26.0094 102.879 27.3498 101.54 28.6069C100.877 29.2278 100.195 29.8298 99.4946 30.4129C99.1351 30.7113 98.7696 31.0033 98.3981 31.2888C98.0459 31.561 97.7002 31.8048 97.2371 31.6758C96.8423 31.5687 96.4979 31.3288 96.1083 31.2037C95.7131 31.0821 95.2954 31.0517 94.8867 31.1147C94.0417 31.2346 93.2664 31.6732 92.5827 32.166C91.8756 32.6913 91.1986 33.2559 90.5549 33.8572C89.8776 34.4687 89.2197 35.1046 88.5889 35.7638C87.1986 37.2154 85.92 38.77 84.7641 40.4143C84.6802 40.5342 84.875 40.6452 84.9588 40.5278L84.9563 40.5226Z" fill="#0B5D3A"/>
<path d="M47.1619 52.6582H81.4217V55.1544H47.1619V52.6582Z" fill="#0B5D3A"/>
<path d="M81.4216 54.8849H48.5524C48.1099 54.8849 47.6623 54.863 47.2198 54.8849H47.1618L47.4327 55.1558V52.6597L47.1618 52.9306H80.031C80.4734 52.9306 80.9224 52.9525 81.3635 52.9306H81.4216L81.1507 52.6597V55.1558C81.1507 55.5041 81.6925 55.5041 81.6925 55.1558V52.6597C81.6915 52.5881 81.6626 52.5198 81.612 52.4692C81.5615 52.4186 81.4931 52.3898 81.4216 52.3888H48.5524C48.1086 52.3888 47.6636 52.3797 47.2198 52.3888H47.1618C47.0902 52.3898 47.0219 52.4186 46.9713 52.4692C46.9207 52.5198 46.8919 52.5881 46.8909 52.6597V55.1558C46.8919 55.2274 46.9207 55.2957 46.9713 55.3463C47.0219 55.3969 47.0902 55.4257 47.1618 55.4267H80.031C80.4747 55.4267 80.9198 55.4345 81.3635 55.4267H81.4216C81.7699 55.4267 81.7699 54.8849 81.4216 54.8849Z" fill="#0B5D3A"/>
<path d="M81.4217 66.0873H48.5525C48.11 66.0873 47.6624 66.0654 47.2199 66.0873H47.1619L47.4328 66.3582V53.2183C47.4424 53.0399 47.4424 52.8612 47.4328 52.6829V52.6597L47.1619 52.9306H80.0311C80.4735 52.9306 80.9225 52.9525 81.3636 52.9306H81.4217L81.1508 52.6597V64.6722C81.1508 65.2243 81.1289 65.7816 81.1508 66.3337C81.1514 66.3418 81.1514 66.35 81.1508 66.3582C81.1508 66.7065 81.6926 66.7065 81.6926 66.3582V54.3444C81.6926 53.7923 81.7158 53.235 81.6926 52.6829V52.6597C81.6916 52.5881 81.6627 52.5198 81.6121 52.4692C81.5616 52.4186 81.4932 52.3898 81.4217 52.3888H48.5525C48.1087 52.3888 47.6637 52.3797 47.2199 52.3888H47.1619C47.0903 52.3898 47.022 52.4186 46.9714 52.4692C46.9208 52.5198 46.892 52.5881 46.891 52.6597V64.6722C46.891 65.2243 46.869 65.7816 46.891 66.3337V66.3582C46.892 66.4297 46.9208 66.4981 46.9714 66.5486C47.022 66.5992 47.0903 66.6281 47.1619 66.6291H80.0311C80.4748 66.6291 80.9199 66.6368 81.3636 66.6291H81.4217C81.77 66.6291 81.77 66.0873 81.4217 66.0873Z" fill="black"/>
<path d="M64.0608 66.0872H58.2739L58.5448 66.3581V53.2169C58.5448 53.0427 58.5615 52.8569 58.5448 52.6828C58.5441 52.6751 58.5441 52.6673 58.5448 52.6596L58.2739 52.9305H64.0608L63.7899 52.6596V64.6682C63.7899 65.2216 63.768 65.7802 63.7899 66.3336V66.3581C63.7899 66.7064 64.3317 66.7064 64.3317 66.3581V54.3482C64.3317 53.7948 64.3537 53.2362 64.3317 52.6828V52.6596C64.3307 52.588 64.3019 52.5197 64.2513 52.4691C64.2007 52.4185 64.1324 52.3897 64.0608 52.3887H58.2739C58.2021 52.3893 58.1335 52.4181 58.0826 52.4687C58.0317 52.5193 58.0027 52.5878 58.0017 52.6596V64.6682C58.0017 65.2216 57.9798 65.7802 58.0017 66.3336C58.0023 66.3417 58.0023 66.3499 58.0017 66.3581C58.003 66.4297 58.0322 66.4981 58.083 66.5486C58.1338 66.5992 58.2022 66.628 58.2739 66.629H64.0608C64.4091 66.629 64.4091 66.0872 64.0608 66.0872Z" fill="black"/>
<path d="M69.8479 66.0872H64.0609L64.3318 66.3581V53.2169C64.3409 53.0389 64.3409 52.8607 64.3318 52.6828C64.3312 52.6751 64.3312 52.6673 64.3318 52.6596L64.0609 52.9305H69.8479L69.577 52.6596V64.6682C69.577 65.2216 69.555 65.7802 69.577 66.3336V66.3581C69.577 66.7064 70.1188 66.7064 70.1188 66.3581V54.3482C70.1188 53.7948 70.1407 53.2362 70.1188 52.6828V52.6596C70.1178 52.588 70.0889 52.5197 70.0383 52.4691C69.9877 52.4185 69.9194 52.3897 69.8479 52.3887H64.0609C63.9894 52.3897 63.9211 52.4185 63.8705 52.4691C63.8199 52.5197 63.791 52.588 63.79 52.6596V64.6682C63.79 65.2216 63.7681 65.7802 63.79 66.3336V66.3581C63.791 66.4296 63.8199 66.4979 63.8705 66.5485C63.9211 66.5991 63.9894 66.628 64.0609 66.629H69.8479C70.1962 66.629 70.1975 66.0872 69.8479 66.0872Z" fill="black"/>
<path d="M75.6347 66.0872H69.8478L70.1187 66.3581V53.2169C70.1277 53.0389 70.1277 52.8607 70.1187 52.6828C70.118 52.6751 70.118 52.6673 70.1187 52.6596L69.8478 52.9305H75.6347L75.3638 52.6596V64.6682C75.3638 65.2216 75.3419 65.7802 75.3638 66.3336V66.3581C75.3638 66.7064 75.9056 66.7064 75.9056 66.3581V54.3482C75.9056 53.7948 75.9276 53.2362 75.9056 52.6828V52.6596C75.9046 52.588 75.8758 52.5197 75.8252 52.4691C75.7746 52.4185 75.7063 52.3897 75.6347 52.3887H69.8478C69.7763 52.3897 69.7079 52.4185 69.6573 52.4691C69.6067 52.5197 69.5779 52.588 69.5769 52.6596V64.6682C69.5769 65.2216 69.555 65.7802 69.5769 66.3336V66.3581C69.5779 66.4296 69.6067 66.4979 69.6573 66.5485C69.7079 66.5991 69.7763 66.628 69.8478 66.629H75.6347C75.983 66.629 75.9843 66.0872 75.6347 66.0872Z" fill="black"/>
<path d="M81.4217 66.0872H75.6348L75.9057 66.3581V53.2169C75.9147 53.0389 75.9147 52.8607 75.9057 52.6828V52.6596L75.6348 52.9305H81.4217L81.1508 52.6596V64.6682C81.1508 65.2216 81.1289 65.7802 81.1508 66.3336C81.1515 66.3417 81.1515 66.3499 81.1508 66.3581C81.1508 66.7064 81.6926 66.7064 81.6926 66.3581V54.3482C81.6926 53.7948 81.7145 53.2362 81.6926 52.6828V52.6596C81.6916 52.588 81.6627 52.5197 81.6122 52.4691C81.5616 52.4185 81.4932 52.3897 81.4217 52.3887H75.6348C75.5632 52.3897 75.4949 52.4185 75.4443 52.4691C75.3937 52.5197 75.3649 52.588 75.3639 52.6596V64.6682C75.3639 65.2216 75.3419 65.7802 75.3639 66.3336V66.3581C75.3649 66.4296 75.3937 66.4979 75.4443 66.5485C75.4949 66.5991 75.5632 66.628 75.6348 66.629H81.4217C81.77 66.629 81.77 66.0872 81.4217 66.0872Z" fill="black"/>
<path d="M23.6078 53.0184C23.2028 54.2271 22.8222 55.4423 22.4468 56.66C22.3926 56.8355 22.6687 56.9116 22.7216 56.7349C23.088 55.5158 23.4479 54.2955 23.782 53.0674C23.7885 53.0439 23.7854 53.0189 23.7734 52.9977C23.7615 52.9766 23.7416 52.961 23.7181 52.9545C23.6947 52.948 23.6696 52.9511 23.6485 52.9631C23.6273 52.975 23.6117 52.9949 23.6052 53.0184H23.6078Z" fill="black"/>
<path d="M11.065 45.0835C10.4974 46.6254 10.0087 48.1952 9.60085 49.7868L9.6589 49.712L9.55054 49.7817C9.52895 49.8018 9.51489 49.8286 9.5107 49.8578C9.50652 49.887 9.51247 49.9168 9.52755 49.9421C9.54264 49.9675 9.56595 49.9869 9.5936 49.9971C9.62126 50.0073 9.65159 50.0078 9.67954 49.9984C9.74446 49.971 9.80066 49.9264 9.84208 49.8694C9.88131 49.7669 9.90942 49.6605 9.92593 49.5521C9.97753 49.3508 10.0304 49.1509 10.0846 48.9496C10.202 48.5188 10.3194 48.0866 10.4445 47.6596C10.6922 46.8108 10.9614 45.9697 11.2521 45.1364C11.2933 45.019 11.1089 44.97 11.0676 45.0848L11.065 45.0835Z" fill="#0B5D3A"/>
<path d="M9.64089 50.6197L9.74409 50.5203C9.75444 50.5102 9.76237 50.4978 9.76731 50.4842C9.77424 50.4707 9.77736 50.4555 9.77634 50.4404C9.77732 50.4256 9.77419 50.4109 9.76731 50.3978C9.76268 50.384 9.7547 50.3716 9.74409 50.3617L9.72087 50.3436C9.70369 50.3334 9.68408 50.3281 9.66411 50.3281H9.63444C9.61532 50.3333 9.59795 50.3436 9.58413 50.3578L9.4848 50.4597C9.46618 50.482 9.45492 50.5095 9.45255 50.5384C9.45213 50.5528 9.4557 50.5671 9.46287 50.5797C9.46681 50.5935 9.47438 50.6059 9.4848 50.6158L9.50802 50.6326C9.52466 50.6429 9.5439 50.6483 9.56349 50.648H9.59187C9.61028 50.6427 9.62711 50.633 9.64089 50.6197Z" fill="#0B5D3A"/>
<path d="M25.0771 40.941C25.3351 41.7073 25.704 42.4297 25.962 43.1959C26.0941 43.5721 26.1853 43.9613 26.2342 44.3569C26.2705 44.7605 26.2417 45.1673 26.149 45.5618C26.1428 45.5913 26.148 45.6222 26.1637 45.648C26.1794 45.6739 26.2043 45.6927 26.2335 45.7008C26.2626 45.7089 26.2937 45.7055 26.3204 45.6914C26.3472 45.6773 26.3675 45.6536 26.3774 45.625C26.6496 44.8768 26.4754 43.9661 26.2264 43.2372C25.953 42.4335 25.5466 41.6892 25.2602 40.8855C25.219 40.772 25.0384 40.8185 25.0771 40.9346V40.941Z" fill="#0B5D3A"/>
<path d="M17.8105 43.457C18.1545 43.8965 18.5062 44.3338 18.8657 44.7689C18.9538 44.867 19.0352 44.9709 19.1095 45.0798C19.149 45.1413 19.1715 45.212 19.1749 45.2849C19.1783 45.3578 19.1624 45.4304 19.1289 45.4952C19.0308 45.7287 18.916 45.9557 18.8206 46.1918C18.4368 47.1431 18.1964 48.146 18.1072 49.1678C18.0524 49.7584 18.0459 50.3525 18.0878 50.9442C18.0994 51.0964 18.3342 51.1003 18.3278 50.9442C18.2802 49.8594 18.388 48.7734 18.6477 47.7192C18.7774 47.192 18.9442 46.6748 19.1469 46.1712C19.2437 45.9312 19.3972 45.6861 19.4449 45.4294C19.4601 45.3198 19.4498 45.2081 19.4146 45.1032C19.3795 44.9982 19.3205 44.9028 19.2424 44.8244C18.8244 44.3149 18.3794 43.8272 17.9421 43.3357C17.8608 43.2442 17.7382 43.3757 17.8131 43.4647L17.8105 43.457Z" fill="#0B5D3A"/>
<path d="M7.42345 92.8107C7.75564 93.3677 8.23899 93.8189 8.81738 94.1121C9.39577 94.4053 10.0455 94.5284 10.691 94.4671C10.9735 94.4426 11.2612 94.4026 11.5373 94.489C11.7324 94.5595 11.9156 94.6596 12.0804 94.7857C12.4067 95.0179 12.7254 95.3017 13.1317 95.3778C13.5858 95.4681 14.0192 95.303 14.4217 95.1198C14.8242 94.9367 15.2602 94.7148 15.7362 94.6941C16.1719 94.6894 16.6049 94.761 17.0159 94.9057C17.8325 95.1637 18.6348 95.5572 19.5043 95.5842C19.9445 95.5883 20.3801 95.4935 20.7788 95.3069C21.2019 95.1237 21.6109 94.8851 22.0688 94.7909C22.9718 94.5935 23.7149 95.2346 24.5198 95.4991C24.9234 95.6402 25.3635 95.6366 25.7647 95.4888C26.2059 95.3211 26.6006 95.0321 27.074 94.9586C27.968 94.818 28.951 95.2862 29.783 94.7883C29.9727 94.6761 30.1326 94.5187 30.3261 94.4129C30.5686 94.2839 30.7673 94.3523 30.9943 94.4761C31.37 94.6956 31.8152 94.7634 32.2392 94.6658C32.4462 94.6153 32.6413 94.5245 32.8132 94.3987C32.9422 94.3059 32.8132 94.0904 32.6842 94.1846C32.5056 94.317 32.2984 94.4056 32.0792 94.4433C31.8601 94.4809 31.6352 94.4666 31.4226 94.4013C31.2072 94.3342 31.0279 94.1897 30.8137 94.1201C30.622 94.0622 30.4151 94.0826 30.2384 94.1768C30.0565 94.2858 29.8816 94.406 29.7147 94.5368C29.5213 94.6634 29.2998 94.7409 29.0697 94.7625C28.6169 94.8102 28.1667 94.7225 27.71 94.6954C27.2658 94.6575 26.8193 94.733 26.4123 94.9147C25.9827 95.1095 25.5738 95.3817 25.0836 95.3598C24.2463 95.3224 23.5755 94.6748 22.7616 94.5355C21.8315 94.3755 21.0987 94.9947 20.2525 95.245C19.4063 95.4952 18.5497 95.1843 17.7525 94.8967C16.9785 94.6167 16.1464 94.3136 15.3105 94.4968C14.859 94.5948 14.4617 94.8438 14.0334 95.0128C13.6051 95.1818 13.1846 95.205 12.7744 94.9638C12.4196 94.7548 12.1294 94.4568 11.7424 94.2955C11.2793 94.0995 10.802 94.2413 10.3234 94.2401C9.44921 94.228 8.61499 93.8721 8.00137 93.2493C7.84578 93.0893 7.70742 92.9133 7.58857 92.7243C7.52278 92.6211 7.35895 92.7153 7.42345 92.8211V92.8107Z" fill="white"/>
<path d="M33.7717 94.2227C33.7792 94.255 33.7938 94.2852 33.8143 94.3113C33.8348 94.3374 33.8608 94.3587 33.8904 94.3736C33.9238 94.3918 33.9608 94.4024 33.9987 94.4046C34.0172 94.4065 34.0358 94.4065 34.0542 94.4046C34.0735 94.4008 34.0922 94.3943 34.1097 94.3852C34.1271 94.375 34.1412 94.3598 34.1501 94.3416C34.159 94.3234 34.1623 94.303 34.1597 94.2829C34.1571 94.2629 34.1486 94.244 34.1354 94.2287C34.1221 94.2134 34.1047 94.2023 34.0852 94.1969C34.0586 94.1905 34.0305 94.1942 34.0065 94.2072H33.9949L34.0194 94.1969C34.0088 94.2018 33.9975 94.2049 33.9858 94.2059H34.0129C34.001 94.2078 33.9888 94.2078 33.9768 94.2059H34.0026C33.9893 94.2043 33.9763 94.2008 33.9639 94.1956L33.9871 94.2059C33.9744 94.1998 33.9623 94.1925 33.951 94.184L33.9704 94.1995L33.9458 94.175L33.96 94.1943C33.9536 94.1856 33.9484 94.176 33.9446 94.1659L33.9536 94.1879C33.9531 94.1836 33.9531 94.1792 33.9536 94.175C33.9472 94.1516 33.9319 94.1317 33.911 94.1195C33.9004 94.1128 33.8886 94.1084 33.8763 94.1065C33.864 94.1046 33.8514 94.1053 33.8393 94.1084C33.8272 94.1116 33.8159 94.1171 33.806 94.1248C33.7962 94.1325 33.788 94.1421 33.782 94.153C33.7707 94.1744 33.7675 94.1991 33.773 94.2227H33.7717Z" fill="white"/>
<path d="M8.10069 86.4143C8.62201 87.0248 9.29191 87.4906 10.0457 87.7668C10.7995 88.0429 11.6118 88.12 12.4041 87.9907C13.3291 87.832 14.2914 87.3225 15.2421 87.6553C15.9568 87.9056 16.5321 88.5415 17.3268 88.5583C17.7525 88.5686 18.1343 88.3687 18.5097 88.192C18.8948 87.9967 19.3249 87.9077 19.7558 87.934C20.575 87.9907 21.3529 88.3545 22.1823 88.3274C22.5627 88.3137 22.9329 88.2002 23.2556 87.9985C23.5704 87.8075 23.8568 87.565 24.1896 87.405C24.3493 87.3227 24.5259 87.2785 24.7056 87.276C24.9324 87.2964 25.1508 87.3722 25.3415 87.4966C25.7363 87.7159 26.0962 87.8694 26.5593 87.8075C27.1076 87.7327 27.621 87.4683 28.1434 87.2915C28.6737 87.1153 29.2144 86.9723 29.7624 86.8632C30.8661 86.6446 31.9926 86.5627 33.1164 86.6194C33.2828 86.6272 33.2815 86.3705 33.1164 86.3614C31.1465 86.268 29.1794 86.5957 27.3462 87.3225C26.9037 87.4941 26.4084 87.6837 25.9272 87.5263C25.5299 87.3973 25.2138 87.0864 24.783 87.0438C24.0232 86.9664 23.4814 87.6579 22.848 87.9404C22.083 88.2797 21.2277 87.9662 20.4615 87.8037C20.0712 87.7067 19.6678 87.6736 19.2669 87.7056C18.8619 87.7533 18.5123 87.9327 18.1472 88.1029C17.7396 88.2926 17.341 88.3932 16.9011 88.2487C16.5347 88.1274 16.2135 87.9004 15.8794 87.7108C15.5337 87.4965 15.1437 87.3642 14.739 87.3238C14.2899 87.3142 13.8423 87.3787 13.4142 87.5147C12.9111 87.6437 12.4132 87.8037 11.8894 87.8346C11.4425 87.8596 10.9945 87.8161 10.5607 87.7056C9.65856 87.4844 8.84753 86.988 8.24001 86.2853C8.16132 86.1924 8.02974 86.3266 8.11101 86.4143H8.10069Z" fill="white"/>
<path d="M8.22965 80.326C8.99273 80.7379 9.88033 80.8558 10.7245 80.6575C11.176 80.5582 11.6365 80.3995 12.1048 80.4408C12.5731 80.482 12.9072 80.8045 13.3122 80.9903C14.0321 81.3231 14.8035 81.1193 15.5233 80.8974C15.9175 80.7605 16.3228 80.6578 16.7346 80.5904C17.1583 80.546 17.5866 80.5962 17.9885 80.7375C18.3987 80.8665 18.8012 81.0303 19.2295 81.0909C19.6578 81.1516 20.0796 81.06 20.5027 80.9297C20.9096 80.7888 21.3394 80.7263 21.7695 80.7452C22.1596 80.7821 22.5473 80.8415 22.9305 80.9232C23.6529 81.0522 24.4501 81.1812 25.1132 80.7787C25.4292 80.5891 25.6743 80.2718 26.0162 80.1337C26.4315 79.9686 26.7902 80.3053 27.1926 80.3621C27.5951 80.4188 28.0015 80.2769 28.3846 80.1479C28.84 79.9957 29.2579 79.8899 29.721 80.0667C29.9332 80.1654 30.1574 80.2357 30.388 80.2756C30.6251 80.297 30.864 80.2671 31.0884 80.1879C31.5438 80.0331 31.936 79.7429 32.3127 79.45C32.4417 79.3533 32.2623 79.1804 32.1385 79.2759C31.785 79.552 31.4058 79.8332 30.9775 79.9673C30.7832 80.032 30.5769 80.0523 30.3738 80.0267C30.1553 79.9766 29.9426 79.904 29.7391 79.81C29.3869 79.6932 29.0064 79.6932 28.6542 79.81C28.2762 79.9157 27.906 80.0938 27.5113 80.1286C27.3276 80.1444 27.1427 80.1179 26.9708 80.0512C26.7856 79.9631 26.5914 79.8956 26.3916 79.8499C26.0316 79.8009 25.7349 79.9906 25.4666 80.206C25.1648 80.4485 24.89 80.6755 24.503 80.7633C24.1359 80.831 23.7594 80.831 23.3923 80.7633C22.6351 80.6485 21.8701 80.4175 21.0987 80.5324C20.6627 80.5981 20.2576 80.7904 19.8229 80.86C19.3881 80.9297 18.9379 80.8033 18.5161 80.6639C18.1358 80.5188 17.7416 80.4133 17.3396 80.3492C16.9569 80.3181 16.5718 80.3547 16.2018 80.4575C15.4511 80.6459 14.668 81.0406 13.8798 80.9271C13.4103 80.8587 13.0607 80.5504 12.6414 80.3621C12.2222 80.1737 11.7475 80.1957 11.2921 80.2963C10.7967 80.4059 10.3233 80.5543 9.81119 80.5543C9.29343 80.5446 8.78538 80.412 8.32898 80.1673C8.22191 80.1118 8.12645 80.2731 8.23352 80.3311L8.22965 80.326Z" fill="white"/>
<path d="M8.76376 73.5431C9.03208 74.1507 9.83704 74.1662 10.3866 74.0101C10.8316 73.8811 11.278 73.6566 11.7501 73.6863C12.1719 73.7134 12.4802 74.0062 12.8079 74.2384C13.1129 74.4604 13.4771 74.5866 13.8541 74.6009C14.2423 74.6006 14.6287 74.5468 15.0022 74.4409C15.3997 74.3294 15.8057 74.2509 16.2161 74.2061C16.6225 74.1877 17.0276 74.2646 17.399 74.4306C17.7989 74.5957 18.1872 74.8021 18.6142 74.886C19.0224 74.9547 19.4401 74.9424 19.8436 74.8498C20.6937 74.6821 21.5206 74.3338 22.3965 74.5609C22.8235 74.6705 23.2466 74.846 23.6955 74.7918C24.0709 74.7454 24.4063 74.5596 24.7456 74.4048C25.1042 74.2461 25.4628 74.1468 25.8369 74.3184C26.1762 74.4745 26.5 74.6912 26.8831 74.5415C27.0684 74.4495 27.2454 74.3416 27.412 74.219C27.5778 74.1218 27.7609 74.0579 27.9512 74.0307C28.3171 73.9896 28.6866 73.9931 29.0516 74.041C29.7146 74.0965 30.5119 74.17 30.9711 73.5856C31.0653 73.4657 30.8963 73.2954 30.8021 73.4167C30.3983 73.9327 29.6992 73.8553 29.1161 73.8037C28.4904 73.7521 27.8054 73.6811 27.2507 74.0384C27.1045 74.1535 26.9451 74.2509 26.776 74.3287C26.5658 74.4009 26.3671 74.3184 26.1788 74.2242C25.8511 74.0604 25.5583 73.9391 25.1855 74.0075C24.8126 74.0759 24.5018 74.2655 24.1676 74.41C23.7841 74.5736 23.3549 74.596 22.9563 74.4732C22.5461 74.3622 22.1527 74.2319 21.7231 74.2423C21.3169 74.2635 20.9145 74.3306 20.5234 74.4422C20.1177 74.5621 19.7019 74.6446 19.2811 74.6886C18.8619 74.7079 18.444 74.6288 18.0608 74.4577C17.6738 74.3003 17.3074 74.1042 16.8998 74.0152C16.5323 73.9423 16.154 73.9423 15.7865 74.0152C15.0512 74.1442 14.2656 74.4951 13.5135 74.3093C13.0749 74.201 12.7769 73.872 12.4003 73.6489C11.9939 73.4076 11.5502 73.4141 11.1103 73.5392C10.6704 73.6643 10.2795 73.8682 9.8293 73.8785C9.47197 73.8875 9.09142 73.7882 8.9263 73.4373C8.8747 73.3251 8.71216 73.4218 8.76118 73.5341L8.76376 73.5431Z" fill="white"/>
<path d="M9.87956 67.8859C10.3169 68.3787 11.0122 68.4342 11.6262 68.3413C12.4273 68.2188 13.2103 67.7673 14.0385 67.9208C14.7519 68.0498 15.3363 68.5735 16.0948 68.5038C16.8533 68.4342 17.4764 67.9569 18.222 67.9375C18.9676 67.9182 19.6874 68.3697 20.4576 68.2858C20.8188 68.2471 21.1374 68.0794 21.4689 67.944C21.7948 67.7863 22.1686 67.759 22.5138 67.8679C22.8324 67.9775 23.1201 68.162 23.4426 68.2549C23.7263 68.3456 24.0321 68.3397 24.3121 68.2381C24.8448 68.0433 25.2447 67.5931 25.7775 67.4086C26.1219 67.2796 26.3735 67.397 26.6612 67.5983C26.7783 67.6942 26.9177 67.7591 27.0664 67.787C27.2152 67.815 27.3686 67.8051 27.5126 67.7582C27.7837 67.6427 28.0397 67.4945 28.275 67.3171C28.4943 67.1752 28.7703 67.0036 29.0373 67.1184C29.178 67.1777 29.2953 66.9713 29.1586 66.9107C28.6555 66.6966 28.2246 67.0758 27.8235 67.3338C27.6209 67.4628 27.3823 67.6073 27.132 67.5673C26.8108 67.5144 26.598 67.2035 26.2742 67.1352C25.7362 67.0229 25.2589 67.4099 24.8397 67.6873C24.6117 67.8559 24.3558 67.983 24.0837 68.0627C23.7496 68.1401 23.4387 68.0201 23.133 67.8808C22.8273 67.7415 22.5486 67.5918 22.23 67.5583C21.8817 67.5222 21.5553 67.6499 21.2432 67.7866C20.8845 67.9414 20.5466 68.0794 20.1492 68.0549C19.7519 68.0304 19.3972 67.9001 19.0269 67.8085C18.6819 67.7117 18.3212 67.6836 17.9653 67.726C17.6061 67.7982 17.2551 67.9066 16.9178 68.0498C16.5799 68.1984 16.2149 68.2757 15.8458 68.2768C15.4588 68.2562 15.1144 68.0769 14.7712 67.9285C14.3902 67.7429 13.9693 67.6542 13.5457 67.6705C13.0983 67.7248 12.6578 67.8255 12.2312 67.9711C11.5256 68.1775 10.5891 68.3581 10.0382 67.7324C9.95051 67.6331 9.80474 67.7789 9.89246 67.8769L9.87956 67.8859Z" fill="white"/>
<path d="M10.9619 62.9842C11.6701 63.526 12.6157 62.93 13.3342 62.7197C13.7922 62.5907 14.2063 62.5752 14.5933 62.8848C14.7958 63.0448 14.9945 63.1918 15.2641 63.1828C15.5107 63.1552 15.7497 63.0808 15.9684 62.9635C16.2264 62.8474 16.4921 62.7584 16.7785 62.8526C17.0365 62.939 17.2674 63.1106 17.5358 63.1789C18.1369 63.3325 18.6103 62.819 19.1766 62.7274C19.7752 62.6294 20.3854 62.8216 20.9633 62.9519C21.5412 63.0822 22.1243 63.166 22.7112 63.0035C23.0686 62.9042 23.4427 62.7326 23.8193 62.8152C24.1664 62.89 24.445 63.0732 24.8101 62.9519C25.1751 62.8306 25.4886 62.6088 25.8498 62.4836C26.2209 62.3575 26.6077 62.2833 26.9992 62.263C27.1488 62.2553 27.1501 62.0205 26.9992 62.0296C26.3487 62.0666 25.7141 62.2444 25.139 62.5507C25.0019 62.633 24.8555 62.6988 24.703 62.7468C24.5155 62.7825 24.3215 62.7586 24.1483 62.6784C23.8635 62.568 23.5522 62.5451 23.2543 62.6126C22.9409 62.6823 22.6429 62.8165 22.3217 62.8577C22.0241 62.8885 21.7237 62.8746 21.4303 62.8165C20.8549 62.7158 20.2938 62.5275 19.7081 62.4862C19.432 62.463 19.154 62.4901 18.8877 62.5662C18.6013 62.6539 18.3575 62.8319 18.0776 62.9313C17.7602 63.0448 17.5022 62.948 17.2158 62.8023C16.9836 62.6862 16.7424 62.5688 16.4767 62.5855C15.9826 62.6165 15.4537 63.157 14.9661 62.8835C14.7494 62.7623 14.5894 62.5739 14.352 62.4836C14.1668 62.4184 13.9692 62.3964 13.7741 62.4191C13.2865 62.4682 12.8389 62.6875 12.3822 62.8461C11.9488 62.9971 11.4611 63.1222 11.0625 62.8229C10.9671 62.7494 10.8755 62.9119 10.9684 62.9829L10.9619 62.9842Z" fill="white"/>
<path d="M27.4081 62.3501H27.6094C27.6387 62.3496 27.6668 62.3381 27.6881 62.3179C27.7035 62.3022 27.714 62.2823 27.7182 62.2607C27.7224 62.2391 27.7202 62.2168 27.7118 62.1964C27.7034 62.1761 27.6892 62.1586 27.671 62.1463C27.6528 62.1339 27.6314 62.1272 27.6094 62.127H27.4081C27.3788 62.1277 27.3509 62.1392 27.3294 62.1592C27.3087 62.1804 27.2971 62.2089 27.2971 62.2385C27.2971 62.2682 27.3087 62.2967 27.3294 62.3179C27.3509 62.3379 27.3788 62.3493 27.4081 62.3501Z" fill="white"/>
<path d="M23.3614 55.3981C23.7446 55.588 24.185 55.6275 24.5959 55.509C24.7897 55.4354 24.9774 55.3466 25.1571 55.2433C25.3016 55.1736 25.6731 55.1078 25.6563 55.38C25.6568 55.3969 25.661 55.4136 25.6688 55.4286C25.6765 55.4437 25.6875 55.4569 25.701 55.4672C25.7145 55.4774 25.7301 55.4845 25.7467 55.488C25.7633 55.4914 25.7805 55.4911 25.7969 55.4871C25.9414 55.4574 26.0846 55.4251 26.2278 55.3916C26.371 55.3581 26.3039 55.162 26.1723 55.1878C26.0407 55.2136 25.8821 55.2433 25.7376 55.2742L25.8782 55.38C25.8768 55.2922 25.8473 55.2071 25.7938 55.1374C25.7404 55.0677 25.6659 55.0171 25.5815 54.993C25.3673 54.9182 25.1571 55.0046 24.97 55.1104C24.7534 55.25 24.5092 55.3411 24.2541 55.3774C23.9807 55.4051 23.705 55.3573 23.4569 55.2394C23.3472 55.1878 23.2517 55.349 23.3614 55.4032V55.3981Z" fill="white"/>
<path d="M25.8705 59.1035C26.3096 59.1853 26.7635 59.1186 27.1605 58.9139C27.2895 58.8481 27.1747 58.6559 27.0495 58.723C26.7034 58.9071 26.3059 58.9711 25.9195 58.9049C25.9063 58.9011 25.8925 58.9 25.8788 58.9017C25.8652 58.9033 25.852 58.9075 25.84 58.9143C25.8281 58.921 25.8175 58.93 25.809 58.9408C25.8005 58.9515 25.7942 58.9639 25.7905 58.9771C25.7866 58.9903 25.7854 59.0042 25.7869 59.0179C25.7884 59.0316 25.7927 59.0448 25.7994 59.0569C25.8061 59.0689 25.8152 59.0794 25.8261 59.0879C25.837 59.0964 25.8494 59.1025 25.8627 59.1061L25.8705 59.1035Z" fill="white"/>
</svg>
