<svg width="15" height="26" viewBox="0 0 15 26" fill="none" xmlns="http://www.w3.org/2000/svg">
<path d="M4.07617 8.76626C4.07617 7.39962 6.07957 7.16626 7.81735 7.16626C9.45522 7.16626 11.6932 7.93213 13.5645 8.90007L13.9312 5.1333C12.9954 4.59949 10.8244 3.96601 8.61918 3.83362L9.15362 0H5.57875L6.11389 3.83362C1.50376 4.26633 0 6.93277 0 9.16627C0 14.7992 10.5228 13.6005 10.5228 17.0657C10.5228 18.3668 9.28773 18.8323 7.11554 18.8323C4.17619 18.8323 1.97038 17.8001 0.835333 16.7326L0.266804 20.9663C1.33686 21.5997 3.50717 22.1663 6.11389 22.3001L5.57875 26H9.15362L8.61918 22.2661C14.0313 21.7991 15 18.9321 15 17.033C15.0001 10.3336 4.07617 11.9992 4.07617 8.76626Z" fill="white"/>
</svg>
